<mxfile host="Electron" agent="Mozilla/5.0 (Windows NT 10.0; Win64; x64) AppleWebKit/537.36 (KHTML, like Gecko) draw.io/24.7.8 Chrome/128.0.6613.36 Electron/32.0.1 Safari/537.36" version="24.7.8">
  <diagram name="Página-1" id="cxC_7drX_dCCSnsiQucc">
    <mxGraphModel dx="4598" dy="3344" grid="1" gridSize="10" guides="1" tooltips="1" connect="1" arrows="1" fold="1" page="1" pageScale="1" pageWidth="827" pageHeight="1169" math="0" shadow="0">
      <root>
        <mxCell id="0" />
        <mxCell id="1" parent="0" />
        <mxCell id="5aQSM23evN0nxybhoEWe-389" style="edgeStyle=orthogonalEdgeStyle;rounded=0;orthogonalLoop=1;jettySize=auto;html=1;exitX=0.5;exitY=0;exitDx=0;exitDy=0;entryX=1;entryY=0.5;entryDx=0;entryDy=0;endArrow=none;endFill=0;" parent="1" source="5aQSM23evN0nxybhoEWe-22" target="5aQSM23evN0nxybhoEWe-179" edge="1">
          <mxGeometry relative="1" as="geometry" />
        </mxCell>
        <mxCell id="5aQSM23evN0nxybhoEWe-391" style="edgeStyle=orthogonalEdgeStyle;rounded=0;orthogonalLoop=1;jettySize=auto;html=1;exitX=1;exitY=0;exitDx=0;exitDy=0;entryX=0;entryY=0.5;entryDx=0;entryDy=0;" parent="1" source="5aQSM23evN0nxybhoEWe-22" target="5aQSM23evN0nxybhoEWe-163" edge="1">
          <mxGeometry relative="1" as="geometry">
            <Array as="points">
              <mxPoint x="460" y="280" />
              <mxPoint x="460" y="125" />
            </Array>
          </mxGeometry>
        </mxCell>
        <mxCell id="5aQSM23evN0nxybhoEWe-392" style="edgeStyle=orthogonalEdgeStyle;rounded=0;orthogonalLoop=1;jettySize=auto;html=1;exitX=0;exitY=0;exitDx=0;exitDy=0;entryX=1;entryY=0.5;entryDx=0;entryDy=0;" parent="1" source="5aQSM23evN0nxybhoEWe-22" target="5aQSM23evN0nxybhoEWe-98" edge="1">
          <mxGeometry relative="1" as="geometry">
            <Array as="points">
              <mxPoint x="90" y="280" />
              <mxPoint x="90" y="95" />
            </Array>
          </mxGeometry>
        </mxCell>
        <mxCell id="5aQSM23evN0nxybhoEWe-22" value="Usuario" style="shape=table;startSize=30;container=1;collapsible=0;childLayout=tableLayout;fixedRows=1;rowLines=0;fontStyle=0;strokeColor=default;fontSize=16;verticalAlign=top;" parent="1" vertex="1">
          <mxGeometry x="160" y="280" width="240" height="330" as="geometry" />
        </mxCell>
        <mxCell id="5aQSM23evN0nxybhoEWe-23" value="" style="shape=tableRow;horizontal=0;startSize=0;swimlaneHead=0;swimlaneBody=0;top=0;left=0;bottom=0;right=0;collapsible=0;dropTarget=0;fillColor=none;points=[[0,0.5],[1,0.5]];portConstraint=eastwest;strokeColor=inherit;fontSize=16;" parent="5aQSM23evN0nxybhoEWe-22" vertex="1">
          <mxGeometry y="30" width="240" height="30" as="geometry" />
        </mxCell>
        <mxCell id="5aQSM23evN0nxybhoEWe-24" value="PK" style="shape=partialRectangle;html=1;whiteSpace=wrap;connectable=0;fillColor=none;top=0;left=0;bottom=0;right=0;overflow=hidden;pointerEvents=1;strokeColor=inherit;fontSize=16;" parent="5aQSM23evN0nxybhoEWe-23" vertex="1">
          <mxGeometry width="53" height="30" as="geometry">
            <mxRectangle width="53" height="30" as="alternateBounds" />
          </mxGeometry>
        </mxCell>
        <mxCell id="5aQSM23evN0nxybhoEWe-25" value="ID_Usuario" style="shape=partialRectangle;html=1;whiteSpace=wrap;connectable=0;fillColor=none;top=0;left=0;bottom=0;right=0;align=left;spacingLeft=6;overflow=hidden;strokeColor=inherit;fontSize=16;" parent="5aQSM23evN0nxybhoEWe-23" vertex="1">
          <mxGeometry x="53" width="187" height="30" as="geometry">
            <mxRectangle width="187" height="30" as="alternateBounds" />
          </mxGeometry>
        </mxCell>
        <mxCell id="5aQSM23evN0nxybhoEWe-26" value="" style="shape=tableRow;horizontal=0;startSize=0;swimlaneHead=0;swimlaneBody=0;top=0;left=0;bottom=0;right=0;collapsible=0;dropTarget=0;fillColor=none;points=[[0,0.5],[1,0.5]];portConstraint=eastwest;strokeColor=inherit;fontSize=16;" parent="5aQSM23evN0nxybhoEWe-22" vertex="1">
          <mxGeometry y="60" width="240" height="30" as="geometry" />
        </mxCell>
        <mxCell id="5aQSM23evN0nxybhoEWe-27" value="" style="shape=partialRectangle;html=1;whiteSpace=wrap;connectable=0;fillColor=none;top=0;left=0;bottom=0;right=0;overflow=hidden;strokeColor=inherit;fontSize=16;" parent="5aQSM23evN0nxybhoEWe-26" vertex="1">
          <mxGeometry width="53" height="30" as="geometry">
            <mxRectangle width="53" height="30" as="alternateBounds" />
          </mxGeometry>
        </mxCell>
        <mxCell id="5aQSM23evN0nxybhoEWe-28" value="Biografia" style="shape=partialRectangle;html=1;whiteSpace=wrap;connectable=0;fillColor=none;top=0;left=0;bottom=0;right=0;align=left;spacingLeft=6;overflow=hidden;strokeColor=inherit;fontSize=16;" parent="5aQSM23evN0nxybhoEWe-26" vertex="1">
          <mxGeometry x="53" width="187" height="30" as="geometry">
            <mxRectangle width="187" height="30" as="alternateBounds" />
          </mxGeometry>
        </mxCell>
        <mxCell id="5aQSM23evN0nxybhoEWe-29" value="" style="shape=tableRow;horizontal=0;startSize=0;swimlaneHead=0;swimlaneBody=0;top=0;left=0;bottom=0;right=0;collapsible=0;dropTarget=0;fillColor=none;points=[[0,0.5],[1,0.5]];portConstraint=eastwest;strokeColor=inherit;fontSize=16;" parent="5aQSM23evN0nxybhoEWe-22" vertex="1">
          <mxGeometry y="90" width="240" height="30" as="geometry" />
        </mxCell>
        <mxCell id="5aQSM23evN0nxybhoEWe-30" value="" style="shape=partialRectangle;html=1;whiteSpace=wrap;connectable=0;fillColor=none;top=0;left=0;bottom=0;right=0;overflow=hidden;strokeColor=inherit;fontSize=16;" parent="5aQSM23evN0nxybhoEWe-29" vertex="1">
          <mxGeometry width="53" height="30" as="geometry">
            <mxRectangle width="53" height="30" as="alternateBounds" />
          </mxGeometry>
        </mxCell>
        <mxCell id="5aQSM23evN0nxybhoEWe-31" value="Foto_de_usuario" style="shape=partialRectangle;html=1;whiteSpace=wrap;connectable=0;fillColor=none;top=0;left=0;bottom=0;right=0;align=left;spacingLeft=6;overflow=hidden;strokeColor=inherit;fontSize=16;" parent="5aQSM23evN0nxybhoEWe-29" vertex="1">
          <mxGeometry x="53" width="187" height="30" as="geometry">
            <mxRectangle width="187" height="30" as="alternateBounds" />
          </mxGeometry>
        </mxCell>
        <mxCell id="5aQSM23evN0nxybhoEWe-53" style="shape=tableRow;horizontal=0;startSize=0;swimlaneHead=0;swimlaneBody=0;top=0;left=0;bottom=0;right=0;collapsible=0;dropTarget=0;fillColor=none;points=[[0,0.5],[1,0.5]];portConstraint=eastwest;strokeColor=inherit;fontSize=16;" parent="5aQSM23evN0nxybhoEWe-22" vertex="1">
          <mxGeometry y="120" width="240" height="30" as="geometry" />
        </mxCell>
        <mxCell id="5aQSM23evN0nxybhoEWe-54" style="shape=partialRectangle;html=1;whiteSpace=wrap;connectable=0;fillColor=none;top=0;left=0;bottom=0;right=0;overflow=hidden;strokeColor=inherit;fontSize=16;" parent="5aQSM23evN0nxybhoEWe-53" vertex="1">
          <mxGeometry width="53" height="30" as="geometry">
            <mxRectangle width="53" height="30" as="alternateBounds" />
          </mxGeometry>
        </mxCell>
        <mxCell id="5aQSM23evN0nxybhoEWe-55" value="Verificado" style="shape=partialRectangle;html=1;whiteSpace=wrap;connectable=0;fillColor=none;top=0;left=0;bottom=0;right=0;align=left;spacingLeft=6;overflow=hidden;strokeColor=inherit;fontSize=16;" parent="5aQSM23evN0nxybhoEWe-53" vertex="1">
          <mxGeometry x="53" width="187" height="30" as="geometry">
            <mxRectangle width="187" height="30" as="alternateBounds" />
          </mxGeometry>
        </mxCell>
        <mxCell id="5aQSM23evN0nxybhoEWe-50" style="shape=tableRow;horizontal=0;startSize=0;swimlaneHead=0;swimlaneBody=0;top=0;left=0;bottom=0;right=0;collapsible=0;dropTarget=0;fillColor=none;points=[[0,0.5],[1,0.5]];portConstraint=eastwest;strokeColor=inherit;fontSize=16;" parent="5aQSM23evN0nxybhoEWe-22" vertex="1">
          <mxGeometry y="150" width="240" height="30" as="geometry" />
        </mxCell>
        <mxCell id="5aQSM23evN0nxybhoEWe-51" style="shape=partialRectangle;html=1;whiteSpace=wrap;connectable=0;fillColor=none;top=0;left=0;bottom=0;right=0;overflow=hidden;strokeColor=inherit;fontSize=16;" parent="5aQSM23evN0nxybhoEWe-50" vertex="1">
          <mxGeometry width="53" height="30" as="geometry">
            <mxRectangle width="53" height="30" as="alternateBounds" />
          </mxGeometry>
        </mxCell>
        <mxCell id="5aQSM23evN0nxybhoEWe-52" value="Ultimo_registro" style="shape=partialRectangle;html=1;whiteSpace=wrap;connectable=0;fillColor=none;top=0;left=0;bottom=0;right=0;align=left;spacingLeft=6;overflow=hidden;strokeColor=inherit;fontSize=16;" parent="5aQSM23evN0nxybhoEWe-50" vertex="1">
          <mxGeometry x="53" width="187" height="30" as="geometry">
            <mxRectangle width="187" height="30" as="alternateBounds" />
          </mxGeometry>
        </mxCell>
        <mxCell id="5aQSM23evN0nxybhoEWe-47" style="shape=tableRow;horizontal=0;startSize=0;swimlaneHead=0;swimlaneBody=0;top=0;left=0;bottom=0;right=0;collapsible=0;dropTarget=0;fillColor=none;points=[[0,0.5],[1,0.5]];portConstraint=eastwest;strokeColor=inherit;fontSize=16;" parent="5aQSM23evN0nxybhoEWe-22" vertex="1">
          <mxGeometry y="180" width="240" height="30" as="geometry" />
        </mxCell>
        <mxCell id="5aQSM23evN0nxybhoEWe-48" style="shape=partialRectangle;html=1;whiteSpace=wrap;connectable=0;fillColor=none;top=0;left=0;bottom=0;right=0;overflow=hidden;strokeColor=inherit;fontSize=16;" parent="5aQSM23evN0nxybhoEWe-47" vertex="1">
          <mxGeometry width="53" height="30" as="geometry">
            <mxRectangle width="53" height="30" as="alternateBounds" />
          </mxGeometry>
        </mxCell>
        <mxCell id="5aQSM23evN0nxybhoEWe-49" value="Contraseña" style="shape=partialRectangle;html=1;whiteSpace=wrap;connectable=0;fillColor=none;top=0;left=0;bottom=0;right=0;align=left;spacingLeft=6;overflow=hidden;strokeColor=inherit;fontSize=16;" parent="5aQSM23evN0nxybhoEWe-47" vertex="1">
          <mxGeometry x="53" width="187" height="30" as="geometry">
            <mxRectangle width="187" height="30" as="alternateBounds" />
          </mxGeometry>
        </mxCell>
        <mxCell id="5aQSM23evN0nxybhoEWe-44" style="shape=tableRow;horizontal=0;startSize=0;swimlaneHead=0;swimlaneBody=0;top=0;left=0;bottom=0;right=0;collapsible=0;dropTarget=0;fillColor=none;points=[[0,0.5],[1,0.5]];portConstraint=eastwest;strokeColor=inherit;fontSize=16;" parent="5aQSM23evN0nxybhoEWe-22" vertex="1">
          <mxGeometry y="210" width="240" height="30" as="geometry" />
        </mxCell>
        <mxCell id="5aQSM23evN0nxybhoEWe-45" style="shape=partialRectangle;html=1;whiteSpace=wrap;connectable=0;fillColor=none;top=0;left=0;bottom=0;right=0;overflow=hidden;strokeColor=inherit;fontSize=16;" parent="5aQSM23evN0nxybhoEWe-44" vertex="1">
          <mxGeometry width="53" height="30" as="geometry">
            <mxRectangle width="53" height="30" as="alternateBounds" />
          </mxGeometry>
        </mxCell>
        <mxCell id="5aQSM23evN0nxybhoEWe-46" value="Administrador" style="shape=partialRectangle;html=1;whiteSpace=wrap;connectable=0;fillColor=none;top=0;left=0;bottom=0;right=0;align=left;spacingLeft=6;overflow=hidden;strokeColor=inherit;fontSize=16;" parent="5aQSM23evN0nxybhoEWe-44" vertex="1">
          <mxGeometry x="53" width="187" height="30" as="geometry">
            <mxRectangle width="187" height="30" as="alternateBounds" />
          </mxGeometry>
        </mxCell>
        <mxCell id="5aQSM23evN0nxybhoEWe-41" style="shape=tableRow;horizontal=0;startSize=0;swimlaneHead=0;swimlaneBody=0;top=0;left=0;bottom=0;right=0;collapsible=0;dropTarget=0;fillColor=none;points=[[0,0.5],[1,0.5]];portConstraint=eastwest;strokeColor=inherit;fontSize=16;" parent="5aQSM23evN0nxybhoEWe-22" vertex="1">
          <mxGeometry y="240" width="240" height="30" as="geometry" />
        </mxCell>
        <mxCell id="5aQSM23evN0nxybhoEWe-42" style="shape=partialRectangle;html=1;whiteSpace=wrap;connectable=0;fillColor=none;top=0;left=0;bottom=0;right=0;overflow=hidden;strokeColor=inherit;fontSize=16;" parent="5aQSM23evN0nxybhoEWe-41" vertex="1">
          <mxGeometry width="53" height="30" as="geometry">
            <mxRectangle width="53" height="30" as="alternateBounds" />
          </mxGeometry>
        </mxCell>
        <mxCell id="5aQSM23evN0nxybhoEWe-43" value="Fecha_registro" style="shape=partialRectangle;html=1;whiteSpace=wrap;connectable=0;fillColor=none;top=0;left=0;bottom=0;right=0;align=left;spacingLeft=6;overflow=hidden;strokeColor=inherit;fontSize=16;" parent="5aQSM23evN0nxybhoEWe-41" vertex="1">
          <mxGeometry x="53" width="187" height="30" as="geometry">
            <mxRectangle width="187" height="30" as="alternateBounds" />
          </mxGeometry>
        </mxCell>
        <mxCell id="5aQSM23evN0nxybhoEWe-38" style="shape=tableRow;horizontal=0;startSize=0;swimlaneHead=0;swimlaneBody=0;top=0;left=0;bottom=0;right=0;collapsible=0;dropTarget=0;fillColor=none;points=[[0,0.5],[1,0.5]];portConstraint=eastwest;strokeColor=inherit;fontSize=16;" parent="5aQSM23evN0nxybhoEWe-22" vertex="1">
          <mxGeometry y="270" width="240" height="30" as="geometry" />
        </mxCell>
        <mxCell id="5aQSM23evN0nxybhoEWe-39" style="shape=partialRectangle;html=1;whiteSpace=wrap;connectable=0;fillColor=none;top=0;left=0;bottom=0;right=0;overflow=hidden;strokeColor=inherit;fontSize=16;" parent="5aQSM23evN0nxybhoEWe-38" vertex="1">
          <mxGeometry width="53" height="30" as="geometry">
            <mxRectangle width="53" height="30" as="alternateBounds" />
          </mxGeometry>
        </mxCell>
        <mxCell id="5aQSM23evN0nxybhoEWe-40" value="Mail" style="shape=partialRectangle;html=1;whiteSpace=wrap;connectable=0;fillColor=none;top=0;left=0;bottom=0;right=0;align=left;spacingLeft=6;overflow=hidden;strokeColor=inherit;fontSize=16;" parent="5aQSM23evN0nxybhoEWe-38" vertex="1">
          <mxGeometry x="53" width="187" height="30" as="geometry">
            <mxRectangle width="187" height="30" as="alternateBounds" />
          </mxGeometry>
        </mxCell>
        <mxCell id="5aQSM23evN0nxybhoEWe-35" style="shape=tableRow;horizontal=0;startSize=0;swimlaneHead=0;swimlaneBody=0;top=0;left=0;bottom=0;right=0;collapsible=0;dropTarget=0;fillColor=none;points=[[0,0.5],[1,0.5]];portConstraint=eastwest;strokeColor=inherit;fontSize=16;" parent="5aQSM23evN0nxybhoEWe-22" vertex="1">
          <mxGeometry y="300" width="240" height="30" as="geometry" />
        </mxCell>
        <mxCell id="5aQSM23evN0nxybhoEWe-36" style="shape=partialRectangle;html=1;whiteSpace=wrap;connectable=0;fillColor=none;top=0;left=0;bottom=0;right=0;overflow=hidden;strokeColor=inherit;fontSize=16;" parent="5aQSM23evN0nxybhoEWe-35" vertex="1">
          <mxGeometry width="53" height="30" as="geometry">
            <mxRectangle width="53" height="30" as="alternateBounds" />
          </mxGeometry>
        </mxCell>
        <mxCell id="5aQSM23evN0nxybhoEWe-37" value="Nombre_de_Usuario" style="shape=partialRectangle;html=1;whiteSpace=wrap;connectable=0;fillColor=none;top=0;left=0;bottom=0;right=0;align=left;spacingLeft=6;overflow=hidden;strokeColor=inherit;fontSize=16;" parent="5aQSM23evN0nxybhoEWe-35" vertex="1">
          <mxGeometry x="53" width="187" height="30" as="geometry">
            <mxRectangle width="187" height="30" as="alternateBounds" />
          </mxGeometry>
        </mxCell>
        <mxCell id="5aQSM23evN0nxybhoEWe-56" value="Configuracion_Usuario" style="shape=table;startSize=30;container=1;collapsible=0;childLayout=tableLayout;fixedRows=1;rowLines=0;fontStyle=0;strokeColor=default;fontSize=16;" parent="1" vertex="1">
          <mxGeometry x="480" y="280" width="240" height="180" as="geometry" />
        </mxCell>
        <mxCell id="5aQSM23evN0nxybhoEWe-57" value="" style="shape=tableRow;horizontal=0;startSize=0;swimlaneHead=0;swimlaneBody=0;top=0;left=0;bottom=0;right=0;collapsible=0;dropTarget=0;fillColor=none;points=[[0,0.5],[1,0.5]];portConstraint=eastwest;strokeColor=inherit;fontSize=16;" parent="5aQSM23evN0nxybhoEWe-56" vertex="1">
          <mxGeometry y="30" width="240" height="30" as="geometry" />
        </mxCell>
        <mxCell id="5aQSM23evN0nxybhoEWe-58" value="PK" style="shape=partialRectangle;html=1;whiteSpace=wrap;connectable=0;fillColor=none;top=0;left=0;bottom=0;right=0;overflow=hidden;pointerEvents=1;strokeColor=inherit;fontSize=16;" parent="5aQSM23evN0nxybhoEWe-57" vertex="1">
          <mxGeometry width="53" height="30" as="geometry">
            <mxRectangle width="53" height="30" as="alternateBounds" />
          </mxGeometry>
        </mxCell>
        <mxCell id="5aQSM23evN0nxybhoEWe-59" value="ID_Configuracion" style="shape=partialRectangle;html=1;whiteSpace=wrap;connectable=0;fillColor=none;top=0;left=0;bottom=0;right=0;align=left;spacingLeft=6;overflow=hidden;strokeColor=inherit;fontSize=16;" parent="5aQSM23evN0nxybhoEWe-57" vertex="1">
          <mxGeometry x="53" width="187" height="30" as="geometry">
            <mxRectangle width="187" height="30" as="alternateBounds" />
          </mxGeometry>
        </mxCell>
        <mxCell id="5aQSM23evN0nxybhoEWe-60" value="" style="shape=tableRow;horizontal=0;startSize=0;swimlaneHead=0;swimlaneBody=0;top=0;left=0;bottom=0;right=0;collapsible=0;dropTarget=0;fillColor=none;points=[[0,0.5],[1,0.5]];portConstraint=eastwest;strokeColor=inherit;fontSize=16;" parent="5aQSM23evN0nxybhoEWe-56" vertex="1">
          <mxGeometry y="60" width="240" height="30" as="geometry" />
        </mxCell>
        <mxCell id="5aQSM23evN0nxybhoEWe-61" value="" style="shape=partialRectangle;html=1;whiteSpace=wrap;connectable=0;fillColor=none;top=0;left=0;bottom=0;right=0;overflow=hidden;strokeColor=inherit;fontSize=16;" parent="5aQSM23evN0nxybhoEWe-60" vertex="1">
          <mxGeometry width="53" height="30" as="geometry">
            <mxRectangle width="53" height="30" as="alternateBounds" />
          </mxGeometry>
        </mxCell>
        <mxCell id="5aQSM23evN0nxybhoEWe-62" value="Privado" style="shape=partialRectangle;html=1;whiteSpace=wrap;connectable=0;fillColor=none;top=0;left=0;bottom=0;right=0;align=left;spacingLeft=6;overflow=hidden;strokeColor=inherit;fontSize=16;" parent="5aQSM23evN0nxybhoEWe-60" vertex="1">
          <mxGeometry x="53" width="187" height="30" as="geometry">
            <mxRectangle width="187" height="30" as="alternateBounds" />
          </mxGeometry>
        </mxCell>
        <mxCell id="5aQSM23evN0nxybhoEWe-63" value="" style="shape=tableRow;horizontal=0;startSize=0;swimlaneHead=0;swimlaneBody=0;top=0;left=0;bottom=0;right=0;collapsible=0;dropTarget=0;fillColor=none;points=[[0,0.5],[1,0.5]];portConstraint=eastwest;strokeColor=inherit;fontSize=16;" parent="5aQSM23evN0nxybhoEWe-56" vertex="1">
          <mxGeometry y="90" width="240" height="30" as="geometry" />
        </mxCell>
        <mxCell id="5aQSM23evN0nxybhoEWe-64" value="" style="shape=partialRectangle;html=1;whiteSpace=wrap;connectable=0;fillColor=none;top=0;left=0;bottom=0;right=0;overflow=hidden;strokeColor=inherit;fontSize=16;" parent="5aQSM23evN0nxybhoEWe-63" vertex="1">
          <mxGeometry width="53" height="30" as="geometry">
            <mxRectangle width="53" height="30" as="alternateBounds" />
          </mxGeometry>
        </mxCell>
        <mxCell id="5aQSM23evN0nxybhoEWe-65" value="Notificacion" style="shape=partialRectangle;html=1;whiteSpace=wrap;connectable=0;fillColor=none;top=0;left=0;bottom=0;right=0;align=left;spacingLeft=6;overflow=hidden;strokeColor=inherit;fontSize=16;" parent="5aQSM23evN0nxybhoEWe-63" vertex="1">
          <mxGeometry x="53" width="187" height="30" as="geometry">
            <mxRectangle width="187" height="30" as="alternateBounds" />
          </mxGeometry>
        </mxCell>
        <mxCell id="5aQSM23evN0nxybhoEWe-66" style="shape=tableRow;horizontal=0;startSize=0;swimlaneHead=0;swimlaneBody=0;top=0;left=0;bottom=0;right=0;collapsible=0;dropTarget=0;fillColor=none;points=[[0,0.5],[1,0.5]];portConstraint=eastwest;strokeColor=inherit;fontSize=16;" parent="5aQSM23evN0nxybhoEWe-56" vertex="1">
          <mxGeometry y="120" width="240" height="30" as="geometry" />
        </mxCell>
        <mxCell id="5aQSM23evN0nxybhoEWe-67" value="FK" style="shape=partialRectangle;html=1;whiteSpace=wrap;connectable=0;fillColor=none;top=0;left=0;bottom=0;right=0;overflow=hidden;strokeColor=inherit;fontSize=16;" parent="5aQSM23evN0nxybhoEWe-66" vertex="1">
          <mxGeometry width="53" height="30" as="geometry">
            <mxRectangle width="53" height="30" as="alternateBounds" />
          </mxGeometry>
        </mxCell>
        <mxCell id="5aQSM23evN0nxybhoEWe-68" value="ID_Usuario" style="shape=partialRectangle;html=1;whiteSpace=wrap;connectable=0;fillColor=none;top=0;left=0;bottom=0;right=0;align=left;spacingLeft=6;overflow=hidden;strokeColor=inherit;fontSize=16;" parent="5aQSM23evN0nxybhoEWe-66" vertex="1">
          <mxGeometry x="53" width="187" height="30" as="geometry">
            <mxRectangle width="187" height="30" as="alternateBounds" />
          </mxGeometry>
        </mxCell>
        <mxCell id="5aQSM23evN0nxybhoEWe-69" style="shape=tableRow;horizontal=0;startSize=0;swimlaneHead=0;swimlaneBody=0;top=0;left=0;bottom=0;right=0;collapsible=0;dropTarget=0;fillColor=none;points=[[0,0.5],[1,0.5]];portConstraint=eastwest;strokeColor=inherit;fontSize=16;" parent="5aQSM23evN0nxybhoEWe-56" vertex="1">
          <mxGeometry y="150" width="240" height="30" as="geometry" />
        </mxCell>
        <mxCell id="5aQSM23evN0nxybhoEWe-70" value="FK" style="shape=partialRectangle;html=1;whiteSpace=wrap;connectable=0;fillColor=none;top=0;left=0;bottom=0;right=0;overflow=hidden;strokeColor=inherit;fontSize=16;" parent="5aQSM23evN0nxybhoEWe-69" vertex="1">
          <mxGeometry width="53" height="30" as="geometry">
            <mxRectangle width="53" height="30" as="alternateBounds" />
          </mxGeometry>
        </mxCell>
        <mxCell id="5aQSM23evN0nxybhoEWe-71" value="ID_Tema" style="shape=partialRectangle;html=1;whiteSpace=wrap;connectable=0;fillColor=none;top=0;left=0;bottom=0;right=0;align=left;spacingLeft=6;overflow=hidden;strokeColor=inherit;fontSize=16;" parent="5aQSM23evN0nxybhoEWe-69" vertex="1">
          <mxGeometry x="53" width="187" height="30" as="geometry">
            <mxRectangle width="187" height="30" as="alternateBounds" />
          </mxGeometry>
        </mxCell>
        <mxCell id="5aQSM23evN0nxybhoEWe-81" value="Tema" style="shape=table;startSize=30;container=1;collapsible=0;childLayout=tableLayout;fixedRows=1;rowLines=0;fontStyle=0;strokeColor=default;fontSize=16;" parent="1" vertex="1">
          <mxGeometry x="1121" y="80" width="240" height="90" as="geometry" />
        </mxCell>
        <mxCell id="5aQSM23evN0nxybhoEWe-82" value="" style="shape=tableRow;horizontal=0;startSize=0;swimlaneHead=0;swimlaneBody=0;top=0;left=0;bottom=0;right=0;collapsible=0;dropTarget=0;fillColor=none;points=[[0,0.5],[1,0.5]];portConstraint=eastwest;strokeColor=inherit;fontSize=16;" parent="5aQSM23evN0nxybhoEWe-81" vertex="1">
          <mxGeometry y="30" width="240" height="30" as="geometry" />
        </mxCell>
        <mxCell id="5aQSM23evN0nxybhoEWe-83" value="PK" style="shape=partialRectangle;html=1;whiteSpace=wrap;connectable=0;fillColor=none;top=0;left=0;bottom=0;right=0;overflow=hidden;pointerEvents=1;strokeColor=inherit;fontSize=16;" parent="5aQSM23evN0nxybhoEWe-82" vertex="1">
          <mxGeometry width="53" height="30" as="geometry">
            <mxRectangle width="53" height="30" as="alternateBounds" />
          </mxGeometry>
        </mxCell>
        <mxCell id="5aQSM23evN0nxybhoEWe-84" value="ID_Tema" style="shape=partialRectangle;html=1;whiteSpace=wrap;connectable=0;fillColor=none;top=0;left=0;bottom=0;right=0;align=left;spacingLeft=6;overflow=hidden;strokeColor=inherit;fontSize=16;" parent="5aQSM23evN0nxybhoEWe-82" vertex="1">
          <mxGeometry x="53" width="187" height="30" as="geometry">
            <mxRectangle width="187" height="30" as="alternateBounds" />
          </mxGeometry>
        </mxCell>
        <mxCell id="5aQSM23evN0nxybhoEWe-85" value="" style="shape=tableRow;horizontal=0;startSize=0;swimlaneHead=0;swimlaneBody=0;top=0;left=0;bottom=0;right=0;collapsible=0;dropTarget=0;fillColor=none;points=[[0,0.5],[1,0.5]];portConstraint=eastwest;strokeColor=inherit;fontSize=16;" parent="5aQSM23evN0nxybhoEWe-81" vertex="1">
          <mxGeometry y="60" width="240" height="30" as="geometry" />
        </mxCell>
        <mxCell id="5aQSM23evN0nxybhoEWe-86" value="" style="shape=partialRectangle;html=1;whiteSpace=wrap;connectable=0;fillColor=none;top=0;left=0;bottom=0;right=0;overflow=hidden;strokeColor=inherit;fontSize=16;" parent="5aQSM23evN0nxybhoEWe-85" vertex="1">
          <mxGeometry width="53" height="30" as="geometry">
            <mxRectangle width="53" height="30" as="alternateBounds" />
          </mxGeometry>
        </mxCell>
        <mxCell id="5aQSM23evN0nxybhoEWe-87" value="Tema" style="shape=partialRectangle;html=1;whiteSpace=wrap;connectable=0;fillColor=none;top=0;left=0;bottom=0;right=0;align=left;spacingLeft=6;overflow=hidden;strokeColor=inherit;fontSize=16;" parent="5aQSM23evN0nxybhoEWe-85" vertex="1">
          <mxGeometry x="53" width="187" height="30" as="geometry">
            <mxRectangle width="187" height="30" as="alternateBounds" />
          </mxGeometry>
        </mxCell>
        <mxCell id="_7q5wml3us1lX0jzosAX-16" style="edgeStyle=orthogonalEdgeStyle;rounded=0;orthogonalLoop=1;jettySize=auto;html=1;exitX=0.5;exitY=0;exitDx=0;exitDy=0;entryX=0;entryY=0.5;entryDx=0;entryDy=0;endArrow=none;endFill=0;" edge="1" parent="1" source="5aQSM23evN0nxybhoEWe-91" target="5aQSM23evN0nxybhoEWe-118">
          <mxGeometry relative="1" as="geometry" />
        </mxCell>
        <mxCell id="5aQSM23evN0nxybhoEWe-91" value="Busqueda" style="shape=table;startSize=30;container=1;collapsible=0;childLayout=tableLayout;fixedRows=1;rowLines=0;fontStyle=0;strokeColor=default;fontSize=16;" parent="1" vertex="1">
          <mxGeometry x="-280" y="-10" width="240" height="150" as="geometry" />
        </mxCell>
        <mxCell id="5aQSM23evN0nxybhoEWe-92" value="" style="shape=tableRow;horizontal=0;startSize=0;swimlaneHead=0;swimlaneBody=0;top=0;left=0;bottom=0;right=0;collapsible=0;dropTarget=0;fillColor=none;points=[[0,0.5],[1,0.5]];portConstraint=eastwest;strokeColor=inherit;fontSize=16;" parent="5aQSM23evN0nxybhoEWe-91" vertex="1">
          <mxGeometry y="30" width="240" height="30" as="geometry" />
        </mxCell>
        <mxCell id="5aQSM23evN0nxybhoEWe-93" value="PK" style="shape=partialRectangle;html=1;whiteSpace=wrap;connectable=0;fillColor=none;top=0;left=0;bottom=0;right=0;overflow=hidden;pointerEvents=1;strokeColor=inherit;fontSize=16;" parent="5aQSM23evN0nxybhoEWe-92" vertex="1">
          <mxGeometry width="53" height="30" as="geometry">
            <mxRectangle width="53" height="30" as="alternateBounds" />
          </mxGeometry>
        </mxCell>
        <mxCell id="5aQSM23evN0nxybhoEWe-94" value="ID_Busqueda" style="shape=partialRectangle;html=1;whiteSpace=wrap;connectable=0;fillColor=none;top=0;left=0;bottom=0;right=0;align=left;spacingLeft=6;overflow=hidden;strokeColor=inherit;fontSize=16;" parent="5aQSM23evN0nxybhoEWe-92" vertex="1">
          <mxGeometry x="53" width="187" height="30" as="geometry">
            <mxRectangle width="187" height="30" as="alternateBounds" />
          </mxGeometry>
        </mxCell>
        <mxCell id="5aQSM23evN0nxybhoEWe-95" value="" style="shape=tableRow;horizontal=0;startSize=0;swimlaneHead=0;swimlaneBody=0;top=0;left=0;bottom=0;right=0;collapsible=0;dropTarget=0;fillColor=none;points=[[0,0.5],[1,0.5]];portConstraint=eastwest;strokeColor=inherit;fontSize=16;" parent="5aQSM23evN0nxybhoEWe-91" vertex="1">
          <mxGeometry y="60" width="240" height="30" as="geometry" />
        </mxCell>
        <mxCell id="5aQSM23evN0nxybhoEWe-96" value="" style="shape=partialRectangle;html=1;whiteSpace=wrap;connectable=0;fillColor=none;top=0;left=0;bottom=0;right=0;overflow=hidden;strokeColor=inherit;fontSize=16;" parent="5aQSM23evN0nxybhoEWe-95" vertex="1">
          <mxGeometry width="53" height="30" as="geometry">
            <mxRectangle width="53" height="30" as="alternateBounds" />
          </mxGeometry>
        </mxCell>
        <mxCell id="5aQSM23evN0nxybhoEWe-97" value="Fecha_Busqueda" style="shape=partialRectangle;html=1;whiteSpace=wrap;connectable=0;fillColor=none;top=0;left=0;bottom=0;right=0;align=left;spacingLeft=6;overflow=hidden;strokeColor=inherit;fontSize=16;" parent="5aQSM23evN0nxybhoEWe-95" vertex="1">
          <mxGeometry x="53" width="187" height="30" as="geometry">
            <mxRectangle width="187" height="30" as="alternateBounds" />
          </mxGeometry>
        </mxCell>
        <mxCell id="5aQSM23evN0nxybhoEWe-98" value="" style="shape=tableRow;horizontal=0;startSize=0;swimlaneHead=0;swimlaneBody=0;top=0;left=0;bottom=0;right=0;collapsible=0;dropTarget=0;fillColor=none;points=[[0,0.5],[1,0.5]];portConstraint=eastwest;strokeColor=inherit;fontSize=16;" parent="5aQSM23evN0nxybhoEWe-91" vertex="1">
          <mxGeometry y="90" width="240" height="30" as="geometry" />
        </mxCell>
        <mxCell id="5aQSM23evN0nxybhoEWe-99" value="" style="shape=partialRectangle;html=1;whiteSpace=wrap;connectable=0;fillColor=none;top=0;left=0;bottom=0;right=0;overflow=hidden;strokeColor=inherit;fontSize=16;" parent="5aQSM23evN0nxybhoEWe-98" vertex="1">
          <mxGeometry width="53" height="30" as="geometry">
            <mxRectangle width="53" height="30" as="alternateBounds" />
          </mxGeometry>
        </mxCell>
        <mxCell id="5aQSM23evN0nxybhoEWe-100" value="Termino_Busqueda" style="shape=partialRectangle;html=1;whiteSpace=wrap;connectable=0;fillColor=none;top=0;left=0;bottom=0;right=0;align=left;spacingLeft=6;overflow=hidden;strokeColor=inherit;fontSize=16;" parent="5aQSM23evN0nxybhoEWe-98" vertex="1">
          <mxGeometry x="53" width="187" height="30" as="geometry">
            <mxRectangle width="187" height="30" as="alternateBounds" />
          </mxGeometry>
        </mxCell>
        <mxCell id="5aQSM23evN0nxybhoEWe-101" style="shape=tableRow;horizontal=0;startSize=0;swimlaneHead=0;swimlaneBody=0;top=0;left=0;bottom=0;right=0;collapsible=0;dropTarget=0;fillColor=none;points=[[0,0.5],[1,0.5]];portConstraint=eastwest;strokeColor=inherit;fontSize=16;" parent="5aQSM23evN0nxybhoEWe-91" vertex="1">
          <mxGeometry y="120" width="240" height="30" as="geometry" />
        </mxCell>
        <mxCell id="5aQSM23evN0nxybhoEWe-102" value="FK" style="shape=partialRectangle;html=1;whiteSpace=wrap;connectable=0;fillColor=none;top=0;left=0;bottom=0;right=0;overflow=hidden;strokeColor=inherit;fontSize=16;" parent="5aQSM23evN0nxybhoEWe-101" vertex="1">
          <mxGeometry width="53" height="30" as="geometry">
            <mxRectangle width="53" height="30" as="alternateBounds" />
          </mxGeometry>
        </mxCell>
        <mxCell id="5aQSM23evN0nxybhoEWe-103" value="ID_Usuario" style="shape=partialRectangle;html=1;whiteSpace=wrap;connectable=0;fillColor=none;top=0;left=0;bottom=0;right=0;align=left;spacingLeft=6;overflow=hidden;strokeColor=inherit;fontSize=16;" parent="5aQSM23evN0nxybhoEWe-101" vertex="1">
          <mxGeometry x="53" width="187" height="30" as="geometry">
            <mxRectangle width="187" height="30" as="alternateBounds" />
          </mxGeometry>
        </mxCell>
        <mxCell id="5aQSM23evN0nxybhoEWe-104" value="Filtros" style="shape=table;startSize=30;container=1;collapsible=0;childLayout=tableLayout;fixedRows=1;rowLines=0;fontStyle=0;strokeColor=default;fontSize=16;" parent="1" vertex="1">
          <mxGeometry x="230" y="-420" width="240" height="90" as="geometry" />
        </mxCell>
        <mxCell id="5aQSM23evN0nxybhoEWe-105" value="" style="shape=tableRow;horizontal=0;startSize=0;swimlaneHead=0;swimlaneBody=0;top=0;left=0;bottom=0;right=0;collapsible=0;dropTarget=0;fillColor=none;points=[[0,0.5],[1,0.5]];portConstraint=eastwest;strokeColor=inherit;fontSize=16;" parent="5aQSM23evN0nxybhoEWe-104" vertex="1">
          <mxGeometry y="30" width="240" height="30" as="geometry" />
        </mxCell>
        <mxCell id="5aQSM23evN0nxybhoEWe-106" value="PK" style="shape=partialRectangle;html=1;whiteSpace=wrap;connectable=0;fillColor=none;top=0;left=0;bottom=0;right=0;overflow=hidden;pointerEvents=1;strokeColor=inherit;fontSize=16;" parent="5aQSM23evN0nxybhoEWe-105" vertex="1">
          <mxGeometry width="53" height="30" as="geometry">
            <mxRectangle width="53" height="30" as="alternateBounds" />
          </mxGeometry>
        </mxCell>
        <mxCell id="5aQSM23evN0nxybhoEWe-107" value="ID_Filtros" style="shape=partialRectangle;html=1;whiteSpace=wrap;connectable=0;fillColor=none;top=0;left=0;bottom=0;right=0;align=left;spacingLeft=6;overflow=hidden;strokeColor=inherit;fontSize=16;" parent="5aQSM23evN0nxybhoEWe-105" vertex="1">
          <mxGeometry x="53" width="187" height="30" as="geometry">
            <mxRectangle width="187" height="30" as="alternateBounds" />
          </mxGeometry>
        </mxCell>
        <mxCell id="5aQSM23evN0nxybhoEWe-108" value="" style="shape=tableRow;horizontal=0;startSize=0;swimlaneHead=0;swimlaneBody=0;top=0;left=0;bottom=0;right=0;collapsible=0;dropTarget=0;fillColor=none;points=[[0,0.5],[1,0.5]];portConstraint=eastwest;strokeColor=inherit;fontSize=16;" parent="5aQSM23evN0nxybhoEWe-104" vertex="1">
          <mxGeometry y="60" width="240" height="30" as="geometry" />
        </mxCell>
        <mxCell id="5aQSM23evN0nxybhoEWe-109" value="" style="shape=partialRectangle;html=1;whiteSpace=wrap;connectable=0;fillColor=none;top=0;left=0;bottom=0;right=0;overflow=hidden;strokeColor=inherit;fontSize=16;" parent="5aQSM23evN0nxybhoEWe-108" vertex="1">
          <mxGeometry width="53" height="30" as="geometry">
            <mxRectangle width="53" height="30" as="alternateBounds" />
          </mxGeometry>
        </mxCell>
        <mxCell id="5aQSM23evN0nxybhoEWe-110" value="Filtros" style="shape=partialRectangle;html=1;whiteSpace=wrap;connectable=0;fillColor=none;top=0;left=0;bottom=0;right=0;align=left;spacingLeft=6;overflow=hidden;strokeColor=inherit;fontSize=16;" parent="5aQSM23evN0nxybhoEWe-108" vertex="1">
          <mxGeometry x="53" width="187" height="30" as="geometry">
            <mxRectangle width="187" height="30" as="alternateBounds" />
          </mxGeometry>
        </mxCell>
        <mxCell id="5aQSM23evN0nxybhoEWe-114" value="Busca" style="shape=table;startSize=30;container=1;collapsible=0;childLayout=tableLayout;fixedRows=1;rowLines=0;fontStyle=0;strokeColor=default;fontSize=16;" parent="1" vertex="1">
          <mxGeometry x="-81" y="-240" width="240" height="90" as="geometry" />
        </mxCell>
        <mxCell id="5aQSM23evN0nxybhoEWe-115" value="" style="shape=tableRow;horizontal=0;startSize=0;swimlaneHead=0;swimlaneBody=0;top=0;left=0;bottom=0;right=0;collapsible=0;dropTarget=0;fillColor=none;points=[[0,0.5],[1,0.5]];portConstraint=eastwest;strokeColor=inherit;fontSize=16;" parent="5aQSM23evN0nxybhoEWe-114" vertex="1">
          <mxGeometry y="30" width="240" height="30" as="geometry" />
        </mxCell>
        <mxCell id="5aQSM23evN0nxybhoEWe-116" value="PK" style="shape=partialRectangle;html=1;whiteSpace=wrap;connectable=0;fillColor=none;top=0;left=0;bottom=0;right=0;overflow=hidden;pointerEvents=1;strokeColor=inherit;fontSize=16;" parent="5aQSM23evN0nxybhoEWe-115" vertex="1">
          <mxGeometry width="53" height="30" as="geometry">
            <mxRectangle width="53" height="30" as="alternateBounds" />
          </mxGeometry>
        </mxCell>
        <mxCell id="5aQSM23evN0nxybhoEWe-117" value="ID_Filtros" style="shape=partialRectangle;html=1;whiteSpace=wrap;connectable=0;fillColor=none;top=0;left=0;bottom=0;right=0;align=left;spacingLeft=6;overflow=hidden;strokeColor=inherit;fontSize=16;" parent="5aQSM23evN0nxybhoEWe-115" vertex="1">
          <mxGeometry x="53" width="187" height="30" as="geometry">
            <mxRectangle width="187" height="30" as="alternateBounds" />
          </mxGeometry>
        </mxCell>
        <mxCell id="5aQSM23evN0nxybhoEWe-118" value="" style="shape=tableRow;horizontal=0;startSize=0;swimlaneHead=0;swimlaneBody=0;top=0;left=0;bottom=0;right=0;collapsible=0;dropTarget=0;fillColor=none;points=[[0,0.5],[1,0.5]];portConstraint=eastwest;strokeColor=inherit;fontSize=16;" parent="5aQSM23evN0nxybhoEWe-114" vertex="1">
          <mxGeometry y="60" width="240" height="30" as="geometry" />
        </mxCell>
        <mxCell id="5aQSM23evN0nxybhoEWe-119" value="PK" style="shape=partialRectangle;html=1;whiteSpace=wrap;connectable=0;fillColor=none;top=0;left=0;bottom=0;right=0;overflow=hidden;strokeColor=inherit;fontSize=16;" parent="5aQSM23evN0nxybhoEWe-118" vertex="1">
          <mxGeometry width="53" height="30" as="geometry">
            <mxRectangle width="53" height="30" as="alternateBounds" />
          </mxGeometry>
        </mxCell>
        <mxCell id="5aQSM23evN0nxybhoEWe-120" value="ID_Busqueda" style="shape=partialRectangle;html=1;whiteSpace=wrap;connectable=0;fillColor=none;top=0;left=0;bottom=0;right=0;align=left;spacingLeft=6;overflow=hidden;strokeColor=inherit;fontSize=16;" parent="5aQSM23evN0nxybhoEWe-118" vertex="1">
          <mxGeometry x="53" width="187" height="30" as="geometry">
            <mxRectangle width="187" height="30" as="alternateBounds" />
          </mxGeometry>
        </mxCell>
        <mxCell id="5aQSM23evN0nxybhoEWe-124" value="Notificacion" style="shape=table;startSize=30;container=1;collapsible=0;childLayout=tableLayout;fixedRows=1;rowLines=0;fontStyle=0;strokeColor=default;fontSize=16;" parent="1" vertex="1">
          <mxGeometry x="480" y="520" width="240" height="210" as="geometry" />
        </mxCell>
        <mxCell id="5aQSM23evN0nxybhoEWe-125" value="" style="shape=tableRow;horizontal=0;startSize=0;swimlaneHead=0;swimlaneBody=0;top=0;left=0;bottom=0;right=0;collapsible=0;dropTarget=0;fillColor=none;points=[[0,0.5],[1,0.5]];portConstraint=eastwest;strokeColor=inherit;fontSize=16;" parent="5aQSM23evN0nxybhoEWe-124" vertex="1">
          <mxGeometry y="30" width="240" height="30" as="geometry" />
        </mxCell>
        <mxCell id="5aQSM23evN0nxybhoEWe-126" value="PK" style="shape=partialRectangle;html=1;whiteSpace=wrap;connectable=0;fillColor=none;top=0;left=0;bottom=0;right=0;overflow=hidden;pointerEvents=1;strokeColor=inherit;fontSize=16;" parent="5aQSM23evN0nxybhoEWe-125" vertex="1">
          <mxGeometry width="53" height="30" as="geometry">
            <mxRectangle width="53" height="30" as="alternateBounds" />
          </mxGeometry>
        </mxCell>
        <mxCell id="5aQSM23evN0nxybhoEWe-127" value="ID_Notificacion" style="shape=partialRectangle;html=1;whiteSpace=wrap;connectable=0;fillColor=none;top=0;left=0;bottom=0;right=0;align=left;spacingLeft=6;overflow=hidden;strokeColor=inherit;fontSize=16;" parent="5aQSM23evN0nxybhoEWe-125" vertex="1">
          <mxGeometry x="53" width="187" height="30" as="geometry">
            <mxRectangle width="187" height="30" as="alternateBounds" />
          </mxGeometry>
        </mxCell>
        <mxCell id="5aQSM23evN0nxybhoEWe-128" value="" style="shape=tableRow;horizontal=0;startSize=0;swimlaneHead=0;swimlaneBody=0;top=0;left=0;bottom=0;right=0;collapsible=0;dropTarget=0;fillColor=none;points=[[0,0.5],[1,0.5]];portConstraint=eastwest;strokeColor=inherit;fontSize=16;" parent="5aQSM23evN0nxybhoEWe-124" vertex="1">
          <mxGeometry y="60" width="240" height="30" as="geometry" />
        </mxCell>
        <mxCell id="5aQSM23evN0nxybhoEWe-129" value="" style="shape=partialRectangle;html=1;whiteSpace=wrap;connectable=0;fillColor=none;top=0;left=0;bottom=0;right=0;overflow=hidden;strokeColor=inherit;fontSize=16;" parent="5aQSM23evN0nxybhoEWe-128" vertex="1">
          <mxGeometry width="53" height="30" as="geometry">
            <mxRectangle width="53" height="30" as="alternateBounds" />
          </mxGeometry>
        </mxCell>
        <mxCell id="5aQSM23evN0nxybhoEWe-130" value="Fecha_Notificacion" style="shape=partialRectangle;html=1;whiteSpace=wrap;connectable=0;fillColor=none;top=0;left=0;bottom=0;right=0;align=left;spacingLeft=6;overflow=hidden;strokeColor=inherit;fontSize=16;" parent="5aQSM23evN0nxybhoEWe-128" vertex="1">
          <mxGeometry x="53" width="187" height="30" as="geometry">
            <mxRectangle width="187" height="30" as="alternateBounds" />
          </mxGeometry>
        </mxCell>
        <mxCell id="5aQSM23evN0nxybhoEWe-131" value="" style="shape=tableRow;horizontal=0;startSize=0;swimlaneHead=0;swimlaneBody=0;top=0;left=0;bottom=0;right=0;collapsible=0;dropTarget=0;fillColor=none;points=[[0,0.5],[1,0.5]];portConstraint=eastwest;strokeColor=inherit;fontSize=16;" parent="5aQSM23evN0nxybhoEWe-124" vertex="1">
          <mxGeometry y="90" width="240" height="30" as="geometry" />
        </mxCell>
        <mxCell id="5aQSM23evN0nxybhoEWe-132" value="" style="shape=partialRectangle;html=1;whiteSpace=wrap;connectable=0;fillColor=none;top=0;left=0;bottom=0;right=0;overflow=hidden;strokeColor=inherit;fontSize=16;" parent="5aQSM23evN0nxybhoEWe-131" vertex="1">
          <mxGeometry width="53" height="30" as="geometry">
            <mxRectangle width="53" height="30" as="alternateBounds" />
          </mxGeometry>
        </mxCell>
        <mxCell id="5aQSM23evN0nxybhoEWe-133" value="Leido" style="shape=partialRectangle;html=1;whiteSpace=wrap;connectable=0;fillColor=none;top=0;left=0;bottom=0;right=0;align=left;spacingLeft=6;overflow=hidden;strokeColor=inherit;fontSize=16;" parent="5aQSM23evN0nxybhoEWe-131" vertex="1">
          <mxGeometry x="53" width="187" height="30" as="geometry">
            <mxRectangle width="187" height="30" as="alternateBounds" />
          </mxGeometry>
        </mxCell>
        <mxCell id="5aQSM23evN0nxybhoEWe-137" style="shape=tableRow;horizontal=0;startSize=0;swimlaneHead=0;swimlaneBody=0;top=0;left=0;bottom=0;right=0;collapsible=0;dropTarget=0;fillColor=none;points=[[0,0.5],[1,0.5]];portConstraint=eastwest;strokeColor=inherit;fontSize=16;" parent="5aQSM23evN0nxybhoEWe-124" vertex="1">
          <mxGeometry y="120" width="240" height="30" as="geometry" />
        </mxCell>
        <mxCell id="5aQSM23evN0nxybhoEWe-138" style="shape=partialRectangle;html=1;whiteSpace=wrap;connectable=0;fillColor=none;top=0;left=0;bottom=0;right=0;overflow=hidden;strokeColor=inherit;fontSize=16;" parent="5aQSM23evN0nxybhoEWe-137" vertex="1">
          <mxGeometry width="53" height="30" as="geometry">
            <mxRectangle width="53" height="30" as="alternateBounds" />
          </mxGeometry>
        </mxCell>
        <mxCell id="5aQSM23evN0nxybhoEWe-139" value="Contenido" style="shape=partialRectangle;html=1;whiteSpace=wrap;connectable=0;fillColor=none;top=0;left=0;bottom=0;right=0;align=left;spacingLeft=6;overflow=hidden;strokeColor=inherit;fontSize=16;" parent="5aQSM23evN0nxybhoEWe-137" vertex="1">
          <mxGeometry x="53" width="187" height="30" as="geometry">
            <mxRectangle width="187" height="30" as="alternateBounds" />
          </mxGeometry>
        </mxCell>
        <mxCell id="5aQSM23evN0nxybhoEWe-140" style="shape=tableRow;horizontal=0;startSize=0;swimlaneHead=0;swimlaneBody=0;top=0;left=0;bottom=0;right=0;collapsible=0;dropTarget=0;fillColor=none;points=[[0,0.5],[1,0.5]];portConstraint=eastwest;strokeColor=inherit;fontSize=16;" parent="5aQSM23evN0nxybhoEWe-124" vertex="1">
          <mxGeometry y="150" width="240" height="30" as="geometry" />
        </mxCell>
        <mxCell id="5aQSM23evN0nxybhoEWe-141" value="FK" style="shape=partialRectangle;html=1;whiteSpace=wrap;connectable=0;fillColor=none;top=0;left=0;bottom=0;right=0;overflow=hidden;strokeColor=inherit;fontSize=16;" parent="5aQSM23evN0nxybhoEWe-140" vertex="1">
          <mxGeometry width="53" height="30" as="geometry">
            <mxRectangle width="53" height="30" as="alternateBounds" />
          </mxGeometry>
        </mxCell>
        <mxCell id="5aQSM23evN0nxybhoEWe-142" value="ID_Usuario" style="shape=partialRectangle;html=1;whiteSpace=wrap;connectable=0;fillColor=none;top=0;left=0;bottom=0;right=0;align=left;spacingLeft=6;overflow=hidden;strokeColor=inherit;fontSize=16;" parent="5aQSM23evN0nxybhoEWe-140" vertex="1">
          <mxGeometry x="53" width="187" height="30" as="geometry">
            <mxRectangle width="187" height="30" as="alternateBounds" />
          </mxGeometry>
        </mxCell>
        <mxCell id="5aQSM23evN0nxybhoEWe-134" style="shape=tableRow;horizontal=0;startSize=0;swimlaneHead=0;swimlaneBody=0;top=0;left=0;bottom=0;right=0;collapsible=0;dropTarget=0;fillColor=none;points=[[0,0.5],[1,0.5]];portConstraint=eastwest;strokeColor=inherit;fontSize=16;" parent="5aQSM23evN0nxybhoEWe-124" vertex="1">
          <mxGeometry y="180" width="240" height="30" as="geometry" />
        </mxCell>
        <mxCell id="5aQSM23evN0nxybhoEWe-135" value="FK" style="shape=partialRectangle;html=1;whiteSpace=wrap;connectable=0;fillColor=none;top=0;left=0;bottom=0;right=0;overflow=hidden;strokeColor=inherit;fontSize=16;" parent="5aQSM23evN0nxybhoEWe-134" vertex="1">
          <mxGeometry width="53" height="30" as="geometry">
            <mxRectangle width="53" height="30" as="alternateBounds" />
          </mxGeometry>
        </mxCell>
        <mxCell id="5aQSM23evN0nxybhoEWe-136" value="Tipo" style="shape=partialRectangle;html=1;whiteSpace=wrap;connectable=0;fillColor=none;top=0;left=0;bottom=0;right=0;align=left;spacingLeft=6;overflow=hidden;strokeColor=inherit;fontSize=16;" parent="5aQSM23evN0nxybhoEWe-134" vertex="1">
          <mxGeometry x="53" width="187" height="30" as="geometry">
            <mxRectangle width="187" height="30" as="alternateBounds" />
          </mxGeometry>
        </mxCell>
        <mxCell id="5aQSM23evN0nxybhoEWe-143" value="Tipo_Notificacion" style="shape=table;startSize=30;container=1;collapsible=0;childLayout=tableLayout;fixedRows=1;rowLines=0;fontStyle=0;strokeColor=default;fontSize=16;" parent="1" vertex="1">
          <mxGeometry x="860" y="690" width="239" height="60" as="geometry" />
        </mxCell>
        <mxCell id="5aQSM23evN0nxybhoEWe-144" value="" style="shape=tableRow;horizontal=0;startSize=0;swimlaneHead=0;swimlaneBody=0;top=0;left=0;bottom=0;right=0;collapsible=0;dropTarget=0;fillColor=none;points=[[0,0.5],[1,0.5]];portConstraint=eastwest;strokeColor=inherit;fontSize=16;" parent="5aQSM23evN0nxybhoEWe-143" vertex="1">
          <mxGeometry y="30" width="239" height="30" as="geometry" />
        </mxCell>
        <mxCell id="5aQSM23evN0nxybhoEWe-145" value="PK" style="shape=partialRectangle;html=1;whiteSpace=wrap;connectable=0;fillColor=none;top=0;left=0;bottom=0;right=0;overflow=hidden;pointerEvents=1;strokeColor=inherit;fontSize=16;" parent="5aQSM23evN0nxybhoEWe-144" vertex="1">
          <mxGeometry width="53" height="30" as="geometry">
            <mxRectangle width="53" height="30" as="alternateBounds" />
          </mxGeometry>
        </mxCell>
        <mxCell id="5aQSM23evN0nxybhoEWe-146" value="Tipo" style="shape=partialRectangle;html=1;whiteSpace=wrap;connectable=0;fillColor=none;top=0;left=0;bottom=0;right=0;align=left;spacingLeft=6;overflow=hidden;strokeColor=inherit;fontSize=16;" parent="5aQSM23evN0nxybhoEWe-144" vertex="1">
          <mxGeometry x="53" width="186" height="30" as="geometry">
            <mxRectangle width="186" height="30" as="alternateBounds" />
          </mxGeometry>
        </mxCell>
        <mxCell id="5aQSM23evN0nxybhoEWe-153" value="Mensaje_Privado" style="shape=table;startSize=30;container=1;collapsible=0;childLayout=tableLayout;fixedRows=1;rowLines=0;fontStyle=0;strokeColor=default;fontSize=16;" parent="1" vertex="1">
          <mxGeometry x="600" y="-10" width="240" height="180" as="geometry" />
        </mxCell>
        <mxCell id="5aQSM23evN0nxybhoEWe-154" value="" style="shape=tableRow;horizontal=0;startSize=0;swimlaneHead=0;swimlaneBody=0;top=0;left=0;bottom=0;right=0;collapsible=0;dropTarget=0;fillColor=none;points=[[0,0.5],[1,0.5]];portConstraint=eastwest;strokeColor=inherit;fontSize=16;" parent="5aQSM23evN0nxybhoEWe-153" vertex="1">
          <mxGeometry y="30" width="240" height="30" as="geometry" />
        </mxCell>
        <mxCell id="5aQSM23evN0nxybhoEWe-155" value="PK" style="shape=partialRectangle;html=1;whiteSpace=wrap;connectable=0;fillColor=none;top=0;left=0;bottom=0;right=0;overflow=hidden;pointerEvents=1;strokeColor=inherit;fontSize=16;" parent="5aQSM23evN0nxybhoEWe-154" vertex="1">
          <mxGeometry width="53" height="30" as="geometry">
            <mxRectangle width="53" height="30" as="alternateBounds" />
          </mxGeometry>
        </mxCell>
        <mxCell id="5aQSM23evN0nxybhoEWe-156" value="ID_Mensaje" style="shape=partialRectangle;html=1;whiteSpace=wrap;connectable=0;fillColor=none;top=0;left=0;bottom=0;right=0;align=left;spacingLeft=6;overflow=hidden;strokeColor=inherit;fontSize=16;" parent="5aQSM23evN0nxybhoEWe-154" vertex="1">
          <mxGeometry x="53" width="187" height="30" as="geometry">
            <mxRectangle width="187" height="30" as="alternateBounds" />
          </mxGeometry>
        </mxCell>
        <mxCell id="5aQSM23evN0nxybhoEWe-157" value="" style="shape=tableRow;horizontal=0;startSize=0;swimlaneHead=0;swimlaneBody=0;top=0;left=0;bottom=0;right=0;collapsible=0;dropTarget=0;fillColor=none;points=[[0,0.5],[1,0.5]];portConstraint=eastwest;strokeColor=inherit;fontSize=16;" parent="5aQSM23evN0nxybhoEWe-153" vertex="1">
          <mxGeometry y="60" width="240" height="30" as="geometry" />
        </mxCell>
        <mxCell id="5aQSM23evN0nxybhoEWe-158" value="" style="shape=partialRectangle;html=1;whiteSpace=wrap;connectable=0;fillColor=none;top=0;left=0;bottom=0;right=0;overflow=hidden;strokeColor=inherit;fontSize=16;" parent="5aQSM23evN0nxybhoEWe-157" vertex="1">
          <mxGeometry width="53" height="30" as="geometry">
            <mxRectangle width="53" height="30" as="alternateBounds" />
          </mxGeometry>
        </mxCell>
        <mxCell id="5aQSM23evN0nxybhoEWe-159" value="Contenido" style="shape=partialRectangle;html=1;whiteSpace=wrap;connectable=0;fillColor=none;top=0;left=0;bottom=0;right=0;align=left;spacingLeft=6;overflow=hidden;strokeColor=inherit;fontSize=16;" parent="5aQSM23evN0nxybhoEWe-157" vertex="1">
          <mxGeometry x="53" width="187" height="30" as="geometry">
            <mxRectangle width="187" height="30" as="alternateBounds" />
          </mxGeometry>
        </mxCell>
        <mxCell id="5aQSM23evN0nxybhoEWe-160" value="" style="shape=tableRow;horizontal=0;startSize=0;swimlaneHead=0;swimlaneBody=0;top=0;left=0;bottom=0;right=0;collapsible=0;dropTarget=0;fillColor=none;points=[[0,0.5],[1,0.5]];portConstraint=eastwest;strokeColor=inherit;fontSize=16;" parent="5aQSM23evN0nxybhoEWe-153" vertex="1">
          <mxGeometry y="90" width="240" height="30" as="geometry" />
        </mxCell>
        <mxCell id="5aQSM23evN0nxybhoEWe-161" value="" style="shape=partialRectangle;html=1;whiteSpace=wrap;connectable=0;fillColor=none;top=0;left=0;bottom=0;right=0;overflow=hidden;strokeColor=inherit;fontSize=16;" parent="5aQSM23evN0nxybhoEWe-160" vertex="1">
          <mxGeometry width="53" height="30" as="geometry">
            <mxRectangle width="53" height="30" as="alternateBounds" />
          </mxGeometry>
        </mxCell>
        <mxCell id="5aQSM23evN0nxybhoEWe-162" value="Fecha/Hora" style="shape=partialRectangle;html=1;whiteSpace=wrap;connectable=0;fillColor=none;top=0;left=0;bottom=0;right=0;align=left;spacingLeft=6;overflow=hidden;strokeColor=inherit;fontSize=16;" parent="5aQSM23evN0nxybhoEWe-160" vertex="1">
          <mxGeometry x="53" width="187" height="30" as="geometry">
            <mxRectangle width="187" height="30" as="alternateBounds" />
          </mxGeometry>
        </mxCell>
        <mxCell id="5aQSM23evN0nxybhoEWe-163" style="shape=tableRow;horizontal=0;startSize=0;swimlaneHead=0;swimlaneBody=0;top=0;left=0;bottom=0;right=0;collapsible=0;dropTarget=0;fillColor=none;points=[[0,0.5],[1,0.5]];portConstraint=eastwest;strokeColor=inherit;fontSize=16;" parent="5aQSM23evN0nxybhoEWe-153" vertex="1">
          <mxGeometry y="120" width="240" height="30" as="geometry" />
        </mxCell>
        <mxCell id="5aQSM23evN0nxybhoEWe-164" style="shape=partialRectangle;html=1;whiteSpace=wrap;connectable=0;fillColor=none;top=0;left=0;bottom=0;right=0;overflow=hidden;strokeColor=inherit;fontSize=16;" parent="5aQSM23evN0nxybhoEWe-163" vertex="1">
          <mxGeometry width="53" height="30" as="geometry">
            <mxRectangle width="53" height="30" as="alternateBounds" />
          </mxGeometry>
        </mxCell>
        <mxCell id="5aQSM23evN0nxybhoEWe-165" value="Archivos" style="shape=partialRectangle;html=1;whiteSpace=wrap;connectable=0;fillColor=none;top=0;left=0;bottom=0;right=0;align=left;spacingLeft=6;overflow=hidden;strokeColor=inherit;fontSize=16;" parent="5aQSM23evN0nxybhoEWe-163" vertex="1">
          <mxGeometry x="53" width="187" height="30" as="geometry">
            <mxRectangle width="187" height="30" as="alternateBounds" />
          </mxGeometry>
        </mxCell>
        <mxCell id="5aQSM23evN0nxybhoEWe-166" style="shape=tableRow;horizontal=0;startSize=0;swimlaneHead=0;swimlaneBody=0;top=0;left=0;bottom=0;right=0;collapsible=0;dropTarget=0;fillColor=none;points=[[0,0.5],[1,0.5]];portConstraint=eastwest;strokeColor=inherit;fontSize=16;" parent="5aQSM23evN0nxybhoEWe-153" vertex="1">
          <mxGeometry y="150" width="240" height="30" as="geometry" />
        </mxCell>
        <mxCell id="5aQSM23evN0nxybhoEWe-167" value="FK" style="shape=partialRectangle;html=1;whiteSpace=wrap;connectable=0;fillColor=none;top=0;left=0;bottom=0;right=0;overflow=hidden;strokeColor=inherit;fontSize=16;" parent="5aQSM23evN0nxybhoEWe-166" vertex="1">
          <mxGeometry width="53" height="30" as="geometry">
            <mxRectangle width="53" height="30" as="alternateBounds" />
          </mxGeometry>
        </mxCell>
        <mxCell id="5aQSM23evN0nxybhoEWe-168" value="ID_Usuario" style="shape=partialRectangle;html=1;whiteSpace=wrap;connectable=0;fillColor=none;top=0;left=0;bottom=0;right=0;align=left;spacingLeft=6;overflow=hidden;strokeColor=inherit;fontSize=16;" parent="5aQSM23evN0nxybhoEWe-166" vertex="1">
          <mxGeometry x="53" width="187" height="30" as="geometry">
            <mxRectangle width="187" height="30" as="alternateBounds" />
          </mxGeometry>
        </mxCell>
        <mxCell id="5aQSM23evN0nxybhoEWe-169" value="ID_Reporte" style="shape=table;startSize=30;container=1;collapsible=0;childLayout=tableLayout;fixedRows=1;rowLines=0;fontStyle=0;strokeColor=default;fontSize=16;" parent="1" vertex="1">
          <mxGeometry x="160" width="240" height="180" as="geometry" />
        </mxCell>
        <mxCell id="5aQSM23evN0nxybhoEWe-170" value="" style="shape=tableRow;horizontal=0;startSize=0;swimlaneHead=0;swimlaneBody=0;top=0;left=0;bottom=0;right=0;collapsible=0;dropTarget=0;fillColor=none;points=[[0,0.5],[1,0.5]];portConstraint=eastwest;strokeColor=inherit;fontSize=16;" parent="5aQSM23evN0nxybhoEWe-169" vertex="1">
          <mxGeometry y="30" width="240" height="30" as="geometry" />
        </mxCell>
        <mxCell id="5aQSM23evN0nxybhoEWe-171" value="PK" style="shape=partialRectangle;html=1;whiteSpace=wrap;connectable=0;fillColor=none;top=0;left=0;bottom=0;right=0;overflow=hidden;pointerEvents=1;strokeColor=inherit;fontSize=16;" parent="5aQSM23evN0nxybhoEWe-170" vertex="1">
          <mxGeometry width="53" height="30" as="geometry">
            <mxRectangle width="53" height="30" as="alternateBounds" />
          </mxGeometry>
        </mxCell>
        <mxCell id="5aQSM23evN0nxybhoEWe-172" value="ID_Reporte" style="shape=partialRectangle;html=1;whiteSpace=wrap;connectable=0;fillColor=none;top=0;left=0;bottom=0;right=0;align=left;spacingLeft=6;overflow=hidden;strokeColor=inherit;fontSize=16;" parent="5aQSM23evN0nxybhoEWe-170" vertex="1">
          <mxGeometry x="53" width="187" height="30" as="geometry">
            <mxRectangle width="187" height="30" as="alternateBounds" />
          </mxGeometry>
        </mxCell>
        <mxCell id="5aQSM23evN0nxybhoEWe-173" value="" style="shape=tableRow;horizontal=0;startSize=0;swimlaneHead=0;swimlaneBody=0;top=0;left=0;bottom=0;right=0;collapsible=0;dropTarget=0;fillColor=none;points=[[0,0.5],[1,0.5]];portConstraint=eastwest;strokeColor=inherit;fontSize=16;" parent="5aQSM23evN0nxybhoEWe-169" vertex="1">
          <mxGeometry y="60" width="240" height="30" as="geometry" />
        </mxCell>
        <mxCell id="5aQSM23evN0nxybhoEWe-174" value="" style="shape=partialRectangle;html=1;whiteSpace=wrap;connectable=0;fillColor=none;top=0;left=0;bottom=0;right=0;overflow=hidden;strokeColor=inherit;fontSize=16;" parent="5aQSM23evN0nxybhoEWe-173" vertex="1">
          <mxGeometry width="53" height="30" as="geometry">
            <mxRectangle width="53" height="30" as="alternateBounds" />
          </mxGeometry>
        </mxCell>
        <mxCell id="5aQSM23evN0nxybhoEWe-175" value="Privacidad" style="shape=partialRectangle;html=1;whiteSpace=wrap;connectable=0;fillColor=none;top=0;left=0;bottom=0;right=0;align=left;spacingLeft=6;overflow=hidden;strokeColor=inherit;fontSize=16;" parent="5aQSM23evN0nxybhoEWe-173" vertex="1">
          <mxGeometry x="53" width="187" height="30" as="geometry">
            <mxRectangle width="187" height="30" as="alternateBounds" />
          </mxGeometry>
        </mxCell>
        <mxCell id="5aQSM23evN0nxybhoEWe-176" value="" style="shape=tableRow;horizontal=0;startSize=0;swimlaneHead=0;swimlaneBody=0;top=0;left=0;bottom=0;right=0;collapsible=0;dropTarget=0;fillColor=none;points=[[0,0.5],[1,0.5]];portConstraint=eastwest;strokeColor=inherit;fontSize=16;" parent="5aQSM23evN0nxybhoEWe-169" vertex="1">
          <mxGeometry y="90" width="240" height="30" as="geometry" />
        </mxCell>
        <mxCell id="5aQSM23evN0nxybhoEWe-177" value="" style="shape=partialRectangle;html=1;whiteSpace=wrap;connectable=0;fillColor=none;top=0;left=0;bottom=0;right=0;overflow=hidden;strokeColor=inherit;fontSize=16;" parent="5aQSM23evN0nxybhoEWe-176" vertex="1">
          <mxGeometry width="53" height="30" as="geometry">
            <mxRectangle width="53" height="30" as="alternateBounds" />
          </mxGeometry>
        </mxCell>
        <mxCell id="5aQSM23evN0nxybhoEWe-178" value="Motivo" style="shape=partialRectangle;html=1;whiteSpace=wrap;connectable=0;fillColor=none;top=0;left=0;bottom=0;right=0;align=left;spacingLeft=6;overflow=hidden;strokeColor=inherit;fontSize=16;" parent="5aQSM23evN0nxybhoEWe-176" vertex="1">
          <mxGeometry x="53" width="187" height="30" as="geometry">
            <mxRectangle width="187" height="30" as="alternateBounds" />
          </mxGeometry>
        </mxCell>
        <mxCell id="5aQSM23evN0nxybhoEWe-182" style="shape=tableRow;horizontal=0;startSize=0;swimlaneHead=0;swimlaneBody=0;top=0;left=0;bottom=0;right=0;collapsible=0;dropTarget=0;fillColor=none;points=[[0,0.5],[1,0.5]];portConstraint=eastwest;strokeColor=inherit;fontSize=16;" parent="5aQSM23evN0nxybhoEWe-169" vertex="1">
          <mxGeometry y="120" width="240" height="30" as="geometry" />
        </mxCell>
        <mxCell id="5aQSM23evN0nxybhoEWe-183" value="FK" style="shape=partialRectangle;html=1;whiteSpace=wrap;connectable=0;fillColor=none;top=0;left=0;bottom=0;right=0;overflow=hidden;strokeColor=inherit;fontSize=16;" parent="5aQSM23evN0nxybhoEWe-182" vertex="1">
          <mxGeometry width="53" height="30" as="geometry">
            <mxRectangle width="53" height="30" as="alternateBounds" />
          </mxGeometry>
        </mxCell>
        <mxCell id="5aQSM23evN0nxybhoEWe-184" value="ID_Usuario" style="shape=partialRectangle;html=1;whiteSpace=wrap;connectable=0;fillColor=none;top=0;left=0;bottom=0;right=0;align=left;spacingLeft=6;overflow=hidden;strokeColor=inherit;fontSize=16;" parent="5aQSM23evN0nxybhoEWe-182" vertex="1">
          <mxGeometry x="53" width="187" height="30" as="geometry">
            <mxRectangle width="187" height="30" as="alternateBounds" />
          </mxGeometry>
        </mxCell>
        <mxCell id="5aQSM23evN0nxybhoEWe-179" style="shape=tableRow;horizontal=0;startSize=0;swimlaneHead=0;swimlaneBody=0;top=0;left=0;bottom=0;right=0;collapsible=0;dropTarget=0;fillColor=none;points=[[0,0.5],[1,0.5]];portConstraint=eastwest;strokeColor=inherit;fontSize=16;" parent="5aQSM23evN0nxybhoEWe-169" vertex="1">
          <mxGeometry y="150" width="240" height="30" as="geometry" />
        </mxCell>
        <mxCell id="5aQSM23evN0nxybhoEWe-180" value="FK" style="shape=partialRectangle;html=1;whiteSpace=wrap;connectable=0;fillColor=none;top=0;left=0;bottom=0;right=0;overflow=hidden;strokeColor=inherit;fontSize=16;" parent="5aQSM23evN0nxybhoEWe-179" vertex="1">
          <mxGeometry width="53" height="30" as="geometry">
            <mxRectangle width="53" height="30" as="alternateBounds" />
          </mxGeometry>
        </mxCell>
        <mxCell id="5aQSM23evN0nxybhoEWe-181" value="ID_Publicacion" style="shape=partialRectangle;html=1;whiteSpace=wrap;connectable=0;fillColor=none;top=0;left=0;bottom=0;right=0;align=left;spacingLeft=6;overflow=hidden;strokeColor=inherit;fontSize=16;" parent="5aQSM23evN0nxybhoEWe-179" vertex="1">
          <mxGeometry x="53" width="187" height="30" as="geometry">
            <mxRectangle width="187" height="30" as="alternateBounds" />
          </mxGeometry>
        </mxCell>
        <mxCell id="5aQSM23evN0nxybhoEWe-186" value="Comunidad" style="shape=table;startSize=30;container=1;collapsible=0;childLayout=tableLayout;fixedRows=1;rowLines=0;fontStyle=0;strokeColor=default;fontSize=16;" parent="1" vertex="1">
          <mxGeometry x="160" y="680" width="240" height="270" as="geometry" />
        </mxCell>
        <mxCell id="5aQSM23evN0nxybhoEWe-187" value="" style="shape=tableRow;horizontal=0;startSize=0;swimlaneHead=0;swimlaneBody=0;top=0;left=0;bottom=0;right=0;collapsible=0;dropTarget=0;fillColor=none;points=[[0,0.5],[1,0.5]];portConstraint=eastwest;strokeColor=inherit;fontSize=16;" parent="5aQSM23evN0nxybhoEWe-186" vertex="1">
          <mxGeometry y="30" width="240" height="30" as="geometry" />
        </mxCell>
        <mxCell id="5aQSM23evN0nxybhoEWe-188" value="PK" style="shape=partialRectangle;html=1;whiteSpace=wrap;connectable=0;fillColor=none;top=0;left=0;bottom=0;right=0;overflow=hidden;pointerEvents=1;strokeColor=inherit;fontSize=16;" parent="5aQSM23evN0nxybhoEWe-187" vertex="1">
          <mxGeometry width="53" height="30" as="geometry">
            <mxRectangle width="53" height="30" as="alternateBounds" />
          </mxGeometry>
        </mxCell>
        <mxCell id="5aQSM23evN0nxybhoEWe-189" value="ID_Comunidad" style="shape=partialRectangle;html=1;whiteSpace=wrap;connectable=0;fillColor=none;top=0;left=0;bottom=0;right=0;align=left;spacingLeft=6;overflow=hidden;strokeColor=inherit;fontSize=16;" parent="5aQSM23evN0nxybhoEWe-187" vertex="1">
          <mxGeometry x="53" width="187" height="30" as="geometry">
            <mxRectangle width="187" height="30" as="alternateBounds" />
          </mxGeometry>
        </mxCell>
        <mxCell id="5aQSM23evN0nxybhoEWe-190" value="" style="shape=tableRow;horizontal=0;startSize=0;swimlaneHead=0;swimlaneBody=0;top=0;left=0;bottom=0;right=0;collapsible=0;dropTarget=0;fillColor=none;points=[[0,0.5],[1,0.5]];portConstraint=eastwest;strokeColor=inherit;fontSize=16;" parent="5aQSM23evN0nxybhoEWe-186" vertex="1">
          <mxGeometry y="60" width="240" height="30" as="geometry" />
        </mxCell>
        <mxCell id="5aQSM23evN0nxybhoEWe-191" value="&lt;div&gt;&lt;br&gt;&lt;/div&gt;" style="shape=partialRectangle;html=1;whiteSpace=wrap;connectable=0;fillColor=none;top=0;left=0;bottom=0;right=0;overflow=hidden;strokeColor=inherit;fontSize=16;" parent="5aQSM23evN0nxybhoEWe-190" vertex="1">
          <mxGeometry width="53" height="30" as="geometry">
            <mxRectangle width="53" height="30" as="alternateBounds" />
          </mxGeometry>
        </mxCell>
        <mxCell id="5aQSM23evN0nxybhoEWe-192" value="Nombre" style="shape=partialRectangle;html=1;whiteSpace=wrap;connectable=0;fillColor=none;top=0;left=0;bottom=0;right=0;align=left;spacingLeft=6;overflow=hidden;strokeColor=inherit;fontSize=16;" parent="5aQSM23evN0nxybhoEWe-190" vertex="1">
          <mxGeometry x="53" width="187" height="30" as="geometry">
            <mxRectangle width="187" height="30" as="alternateBounds" />
          </mxGeometry>
        </mxCell>
        <mxCell id="5aQSM23evN0nxybhoEWe-193" value="" style="shape=tableRow;horizontal=0;startSize=0;swimlaneHead=0;swimlaneBody=0;top=0;left=0;bottom=0;right=0;collapsible=0;dropTarget=0;fillColor=none;points=[[0,0.5],[1,0.5]];portConstraint=eastwest;strokeColor=inherit;fontSize=16;" parent="5aQSM23evN0nxybhoEWe-186" vertex="1">
          <mxGeometry y="90" width="240" height="30" as="geometry" />
        </mxCell>
        <mxCell id="5aQSM23evN0nxybhoEWe-194" value="" style="shape=partialRectangle;html=1;whiteSpace=wrap;connectable=0;fillColor=none;top=0;left=0;bottom=0;right=0;overflow=hidden;strokeColor=inherit;fontSize=16;" parent="5aQSM23evN0nxybhoEWe-193" vertex="1">
          <mxGeometry width="53" height="30" as="geometry">
            <mxRectangle width="53" height="30" as="alternateBounds" />
          </mxGeometry>
        </mxCell>
        <mxCell id="5aQSM23evN0nxybhoEWe-195" value="Reglas" style="shape=partialRectangle;html=1;whiteSpace=wrap;connectable=0;fillColor=none;top=0;left=0;bottom=0;right=0;align=left;spacingLeft=6;overflow=hidden;strokeColor=inherit;fontSize=16;" parent="5aQSM23evN0nxybhoEWe-193" vertex="1">
          <mxGeometry x="53" width="187" height="30" as="geometry">
            <mxRectangle width="187" height="30" as="alternateBounds" />
          </mxGeometry>
        </mxCell>
        <mxCell id="5aQSM23evN0nxybhoEWe-199" style="shape=tableRow;horizontal=0;startSize=0;swimlaneHead=0;swimlaneBody=0;top=0;left=0;bottom=0;right=0;collapsible=0;dropTarget=0;fillColor=none;points=[[0,0.5],[1,0.5]];portConstraint=eastwest;strokeColor=inherit;fontSize=16;" parent="5aQSM23evN0nxybhoEWe-186" vertex="1">
          <mxGeometry y="120" width="240" height="30" as="geometry" />
        </mxCell>
        <mxCell id="5aQSM23evN0nxybhoEWe-200" style="shape=partialRectangle;html=1;whiteSpace=wrap;connectable=0;fillColor=none;top=0;left=0;bottom=0;right=0;overflow=hidden;strokeColor=inherit;fontSize=16;" parent="5aQSM23evN0nxybhoEWe-199" vertex="1">
          <mxGeometry width="53" height="30" as="geometry">
            <mxRectangle width="53" height="30" as="alternateBounds" />
          </mxGeometry>
        </mxCell>
        <mxCell id="5aQSM23evN0nxybhoEWe-201" value="Descripcion" style="shape=partialRectangle;html=1;whiteSpace=wrap;connectable=0;fillColor=none;top=0;left=0;bottom=0;right=0;align=left;spacingLeft=6;overflow=hidden;strokeColor=inherit;fontSize=16;" parent="5aQSM23evN0nxybhoEWe-199" vertex="1">
          <mxGeometry x="53" width="187" height="30" as="geometry">
            <mxRectangle width="187" height="30" as="alternateBounds" />
          </mxGeometry>
        </mxCell>
        <mxCell id="5aQSM23evN0nxybhoEWe-196" style="shape=tableRow;horizontal=0;startSize=0;swimlaneHead=0;swimlaneBody=0;top=0;left=0;bottom=0;right=0;collapsible=0;dropTarget=0;fillColor=none;points=[[0,0.5],[1,0.5]];portConstraint=eastwest;strokeColor=inherit;fontSize=16;" parent="5aQSM23evN0nxybhoEWe-186" vertex="1">
          <mxGeometry y="150" width="240" height="30" as="geometry" />
        </mxCell>
        <mxCell id="5aQSM23evN0nxybhoEWe-197" style="shape=partialRectangle;html=1;whiteSpace=wrap;connectable=0;fillColor=none;top=0;left=0;bottom=0;right=0;overflow=hidden;strokeColor=inherit;fontSize=16;" parent="5aQSM23evN0nxybhoEWe-196" vertex="1">
          <mxGeometry width="53" height="30" as="geometry">
            <mxRectangle width="53" height="30" as="alternateBounds" />
          </mxGeometry>
        </mxCell>
        <mxCell id="5aQSM23evN0nxybhoEWe-198" value="Icono" style="shape=partialRectangle;html=1;whiteSpace=wrap;connectable=0;fillColor=none;top=0;left=0;bottom=0;right=0;align=left;spacingLeft=6;overflow=hidden;strokeColor=inherit;fontSize=16;" parent="5aQSM23evN0nxybhoEWe-196" vertex="1">
          <mxGeometry x="53" width="187" height="30" as="geometry">
            <mxRectangle width="187" height="30" as="alternateBounds" />
          </mxGeometry>
        </mxCell>
        <mxCell id="5aQSM23evN0nxybhoEWe-205" style="shape=tableRow;horizontal=0;startSize=0;swimlaneHead=0;swimlaneBody=0;top=0;left=0;bottom=0;right=0;collapsible=0;dropTarget=0;fillColor=none;points=[[0,0.5],[1,0.5]];portConstraint=eastwest;strokeColor=inherit;fontSize=16;" parent="5aQSM23evN0nxybhoEWe-186" vertex="1">
          <mxGeometry y="180" width="240" height="30" as="geometry" />
        </mxCell>
        <mxCell id="5aQSM23evN0nxybhoEWe-206" style="shape=partialRectangle;html=1;whiteSpace=wrap;connectable=0;fillColor=none;top=0;left=0;bottom=0;right=0;overflow=hidden;strokeColor=inherit;fontSize=16;" parent="5aQSM23evN0nxybhoEWe-205" vertex="1">
          <mxGeometry width="53" height="30" as="geometry">
            <mxRectangle width="53" height="30" as="alternateBounds" />
          </mxGeometry>
        </mxCell>
        <mxCell id="5aQSM23evN0nxybhoEWe-207" value="Fecha_de_creacion" style="shape=partialRectangle;html=1;whiteSpace=wrap;connectable=0;fillColor=none;top=0;left=0;bottom=0;right=0;align=left;spacingLeft=6;overflow=hidden;strokeColor=inherit;fontSize=16;" parent="5aQSM23evN0nxybhoEWe-205" vertex="1">
          <mxGeometry x="53" width="187" height="30" as="geometry">
            <mxRectangle width="187" height="30" as="alternateBounds" />
          </mxGeometry>
        </mxCell>
        <mxCell id="5aQSM23evN0nxybhoEWe-202" style="shape=tableRow;horizontal=0;startSize=0;swimlaneHead=0;swimlaneBody=0;top=0;left=0;bottom=0;right=0;collapsible=0;dropTarget=0;fillColor=none;points=[[0,0.5],[1,0.5]];portConstraint=eastwest;strokeColor=inherit;fontSize=16;" parent="5aQSM23evN0nxybhoEWe-186" vertex="1">
          <mxGeometry y="210" width="240" height="30" as="geometry" />
        </mxCell>
        <mxCell id="5aQSM23evN0nxybhoEWe-203" style="shape=partialRectangle;html=1;whiteSpace=wrap;connectable=0;fillColor=none;top=0;left=0;bottom=0;right=0;overflow=hidden;strokeColor=inherit;fontSize=16;" parent="5aQSM23evN0nxybhoEWe-202" vertex="1">
          <mxGeometry width="53" height="30" as="geometry">
            <mxRectangle width="53" height="30" as="alternateBounds" />
          </mxGeometry>
        </mxCell>
        <mxCell id="5aQSM23evN0nxybhoEWe-204" value="Visibilidad" style="shape=partialRectangle;html=1;whiteSpace=wrap;connectable=0;fillColor=none;top=0;left=0;bottom=0;right=0;align=left;spacingLeft=6;overflow=hidden;strokeColor=inherit;fontSize=16;" parent="5aQSM23evN0nxybhoEWe-202" vertex="1">
          <mxGeometry x="53" width="187" height="30" as="geometry">
            <mxRectangle width="187" height="30" as="alternateBounds" />
          </mxGeometry>
        </mxCell>
        <mxCell id="5aQSM23evN0nxybhoEWe-208" style="shape=tableRow;horizontal=0;startSize=0;swimlaneHead=0;swimlaneBody=0;top=0;left=0;bottom=0;right=0;collapsible=0;dropTarget=0;fillColor=none;points=[[0,0.5],[1,0.5]];portConstraint=eastwest;strokeColor=inherit;fontSize=16;" parent="5aQSM23evN0nxybhoEWe-186" vertex="1">
          <mxGeometry y="240" width="240" height="30" as="geometry" />
        </mxCell>
        <mxCell id="5aQSM23evN0nxybhoEWe-209" value="FK" style="shape=partialRectangle;html=1;whiteSpace=wrap;connectable=0;fillColor=none;top=0;left=0;bottom=0;right=0;overflow=hidden;strokeColor=inherit;fontSize=16;" parent="5aQSM23evN0nxybhoEWe-208" vertex="1">
          <mxGeometry width="53" height="30" as="geometry">
            <mxRectangle width="53" height="30" as="alternateBounds" />
          </mxGeometry>
        </mxCell>
        <mxCell id="5aQSM23evN0nxybhoEWe-210" value="ID_Usuario" style="shape=partialRectangle;html=1;whiteSpace=wrap;connectable=0;fillColor=none;top=0;left=0;bottom=0;right=0;align=left;spacingLeft=6;overflow=hidden;strokeColor=inherit;fontSize=16;" parent="5aQSM23evN0nxybhoEWe-208" vertex="1">
          <mxGeometry x="53" width="187" height="30" as="geometry">
            <mxRectangle width="187" height="30" as="alternateBounds" />
          </mxGeometry>
        </mxCell>
        <mxCell id="5aQSM23evN0nxybhoEWe-214" value="Categorias" style="shape=table;startSize=30;container=1;collapsible=0;childLayout=tableLayout;fixedRows=1;rowLines=0;fontStyle=0;strokeColor=default;fontSize=16;" parent="1" vertex="1">
          <mxGeometry x="920" y="920" width="240" height="60" as="geometry" />
        </mxCell>
        <mxCell id="5aQSM23evN0nxybhoEWe-215" value="" style="shape=tableRow;horizontal=0;startSize=0;swimlaneHead=0;swimlaneBody=0;top=0;left=0;bottom=0;right=0;collapsible=0;dropTarget=0;fillColor=none;points=[[0,0.5],[1,0.5]];portConstraint=eastwest;strokeColor=inherit;fontSize=16;" parent="5aQSM23evN0nxybhoEWe-214" vertex="1">
          <mxGeometry y="30" width="240" height="30" as="geometry" />
        </mxCell>
        <mxCell id="5aQSM23evN0nxybhoEWe-216" value="PK" style="shape=partialRectangle;html=1;whiteSpace=wrap;connectable=0;fillColor=none;top=0;left=0;bottom=0;right=0;overflow=hidden;pointerEvents=1;strokeColor=inherit;fontSize=16;" parent="5aQSM23evN0nxybhoEWe-215" vertex="1">
          <mxGeometry width="53" height="30" as="geometry">
            <mxRectangle width="53" height="30" as="alternateBounds" />
          </mxGeometry>
        </mxCell>
        <mxCell id="5aQSM23evN0nxybhoEWe-217" value="Categoria" style="shape=partialRectangle;html=1;whiteSpace=wrap;connectable=0;fillColor=none;top=0;left=0;bottom=0;right=0;align=left;spacingLeft=6;overflow=hidden;strokeColor=inherit;fontSize=16;" parent="5aQSM23evN0nxybhoEWe-215" vertex="1">
          <mxGeometry x="53" width="187" height="30" as="geometry">
            <mxRectangle width="187" height="30" as="alternateBounds" />
          </mxGeometry>
        </mxCell>
        <mxCell id="5aQSM23evN0nxybhoEWe-224" value="Tiene" style="shape=table;startSize=30;container=1;collapsible=0;childLayout=tableLayout;fixedRows=1;rowLines=0;fontStyle=0;strokeColor=default;fontSize=16;" parent="1" vertex="1">
          <mxGeometry x="530" y="910" width="240" height="90" as="geometry" />
        </mxCell>
        <mxCell id="5aQSM23evN0nxybhoEWe-225" value="" style="shape=tableRow;horizontal=0;startSize=0;swimlaneHead=0;swimlaneBody=0;top=0;left=0;bottom=0;right=0;collapsible=0;dropTarget=0;fillColor=none;points=[[0,0.5],[1,0.5]];portConstraint=eastwest;strokeColor=inherit;fontSize=16;" parent="5aQSM23evN0nxybhoEWe-224" vertex="1">
          <mxGeometry y="30" width="240" height="30" as="geometry" />
        </mxCell>
        <mxCell id="5aQSM23evN0nxybhoEWe-226" value="PK" style="shape=partialRectangle;html=1;whiteSpace=wrap;connectable=0;fillColor=none;top=0;left=0;bottom=0;right=0;overflow=hidden;pointerEvents=1;strokeColor=inherit;fontSize=16;" parent="5aQSM23evN0nxybhoEWe-225" vertex="1">
          <mxGeometry width="53" height="30" as="geometry">
            <mxRectangle width="53" height="30" as="alternateBounds" />
          </mxGeometry>
        </mxCell>
        <mxCell id="5aQSM23evN0nxybhoEWe-227" value="ID_Comunidad" style="shape=partialRectangle;html=1;whiteSpace=wrap;connectable=0;fillColor=none;top=0;left=0;bottom=0;right=0;align=left;spacingLeft=6;overflow=hidden;strokeColor=inherit;fontSize=16;" parent="5aQSM23evN0nxybhoEWe-225" vertex="1">
          <mxGeometry x="53" width="187" height="30" as="geometry">
            <mxRectangle width="187" height="30" as="alternateBounds" />
          </mxGeometry>
        </mxCell>
        <mxCell id="5aQSM23evN0nxybhoEWe-228" value="" style="shape=tableRow;horizontal=0;startSize=0;swimlaneHead=0;swimlaneBody=0;top=0;left=0;bottom=0;right=0;collapsible=0;dropTarget=0;fillColor=none;points=[[0,0.5],[1,0.5]];portConstraint=eastwest;strokeColor=inherit;fontSize=16;" parent="5aQSM23evN0nxybhoEWe-224" vertex="1">
          <mxGeometry y="60" width="240" height="30" as="geometry" />
        </mxCell>
        <mxCell id="5aQSM23evN0nxybhoEWe-229" value="PK" style="shape=partialRectangle;html=1;whiteSpace=wrap;connectable=0;fillColor=none;top=0;left=0;bottom=0;right=0;overflow=hidden;strokeColor=inherit;fontSize=16;" parent="5aQSM23evN0nxybhoEWe-228" vertex="1">
          <mxGeometry width="53" height="30" as="geometry">
            <mxRectangle width="53" height="30" as="alternateBounds" />
          </mxGeometry>
        </mxCell>
        <mxCell id="5aQSM23evN0nxybhoEWe-230" value="Categoria" style="shape=partialRectangle;html=1;whiteSpace=wrap;connectable=0;fillColor=none;top=0;left=0;bottom=0;right=0;align=left;spacingLeft=6;overflow=hidden;strokeColor=inherit;fontSize=16;" parent="5aQSM23evN0nxybhoEWe-228" vertex="1">
          <mxGeometry x="53" width="187" height="30" as="geometry">
            <mxRectangle width="187" height="30" as="alternateBounds" />
          </mxGeometry>
        </mxCell>
        <mxCell id="5aQSM23evN0nxybhoEWe-234" value="Sub_Categorias" style="shape=table;startSize=30;container=1;collapsible=0;childLayout=tableLayout;fixedRows=1;rowLines=0;fontStyle=0;strokeColor=default;fontSize=16;" parent="1" vertex="1">
          <mxGeometry x="1400" y="860" width="240" height="90" as="geometry" />
        </mxCell>
        <mxCell id="5aQSM23evN0nxybhoEWe-235" value="" style="shape=tableRow;horizontal=0;startSize=0;swimlaneHead=0;swimlaneBody=0;top=0;left=0;bottom=0;right=0;collapsible=0;dropTarget=0;fillColor=none;points=[[0,0.5],[1,0.5]];portConstraint=eastwest;strokeColor=inherit;fontSize=16;" parent="5aQSM23evN0nxybhoEWe-234" vertex="1">
          <mxGeometry y="30" width="240" height="30" as="geometry" />
        </mxCell>
        <mxCell id="5aQSM23evN0nxybhoEWe-236" value="PK" style="shape=partialRectangle;html=1;whiteSpace=wrap;connectable=0;fillColor=none;top=0;left=0;bottom=0;right=0;overflow=hidden;pointerEvents=1;strokeColor=inherit;fontSize=16;" parent="5aQSM23evN0nxybhoEWe-235" vertex="1">
          <mxGeometry width="53" height="30" as="geometry">
            <mxRectangle width="53" height="30" as="alternateBounds" />
          </mxGeometry>
        </mxCell>
        <mxCell id="5aQSM23evN0nxybhoEWe-237" value="Sub_Categoria" style="shape=partialRectangle;html=1;whiteSpace=wrap;connectable=0;fillColor=none;top=0;left=0;bottom=0;right=0;align=left;spacingLeft=6;overflow=hidden;strokeColor=inherit;fontSize=16;" parent="5aQSM23evN0nxybhoEWe-235" vertex="1">
          <mxGeometry x="53" width="187" height="30" as="geometry">
            <mxRectangle width="187" height="30" as="alternateBounds" />
          </mxGeometry>
        </mxCell>
        <mxCell id="5aQSM23evN0nxybhoEWe-238" value="" style="shape=tableRow;horizontal=0;startSize=0;swimlaneHead=0;swimlaneBody=0;top=0;left=0;bottom=0;right=0;collapsible=0;dropTarget=0;fillColor=none;points=[[0,0.5],[1,0.5]];portConstraint=eastwest;strokeColor=inherit;fontSize=16;" parent="5aQSM23evN0nxybhoEWe-234" vertex="1">
          <mxGeometry y="60" width="240" height="30" as="geometry" />
        </mxCell>
        <mxCell id="5aQSM23evN0nxybhoEWe-239" value="PK" style="shape=partialRectangle;html=1;whiteSpace=wrap;connectable=0;fillColor=none;top=0;left=0;bottom=0;right=0;overflow=hidden;strokeColor=inherit;fontSize=16;" parent="5aQSM23evN0nxybhoEWe-238" vertex="1">
          <mxGeometry width="53" height="30" as="geometry">
            <mxRectangle width="53" height="30" as="alternateBounds" />
          </mxGeometry>
        </mxCell>
        <mxCell id="5aQSM23evN0nxybhoEWe-240" value="Categoria" style="shape=partialRectangle;html=1;whiteSpace=wrap;connectable=0;fillColor=none;top=0;left=0;bottom=0;right=0;align=left;spacingLeft=6;overflow=hidden;strokeColor=inherit;fontSize=16;" parent="5aQSM23evN0nxybhoEWe-238" vertex="1">
          <mxGeometry x="53" width="187" height="30" as="geometry">
            <mxRectangle width="187" height="30" as="alternateBounds" />
          </mxGeometry>
        </mxCell>
        <mxCell id="5aQSM23evN0nxybhoEWe-244" value="Eventos" style="shape=table;startSize=30;container=1;collapsible=0;childLayout=tableLayout;fixedRows=1;rowLines=0;fontStyle=0;strokeColor=default;fontSize=16;" parent="1" vertex="1">
          <mxGeometry x="1590" y="250" width="240" height="120" as="geometry" />
        </mxCell>
        <mxCell id="5aQSM23evN0nxybhoEWe-245" value="" style="shape=tableRow;horizontal=0;startSize=0;swimlaneHead=0;swimlaneBody=0;top=0;left=0;bottom=0;right=0;collapsible=0;dropTarget=0;fillColor=none;points=[[0,0.5],[1,0.5]];portConstraint=eastwest;strokeColor=inherit;fontSize=16;" parent="5aQSM23evN0nxybhoEWe-244" vertex="1">
          <mxGeometry y="30" width="240" height="30" as="geometry" />
        </mxCell>
        <mxCell id="5aQSM23evN0nxybhoEWe-246" value="PK" style="shape=partialRectangle;html=1;whiteSpace=wrap;connectable=0;fillColor=none;top=0;left=0;bottom=0;right=0;overflow=hidden;pointerEvents=1;strokeColor=inherit;fontSize=16;" parent="5aQSM23evN0nxybhoEWe-245" vertex="1">
          <mxGeometry width="53" height="30" as="geometry">
            <mxRectangle width="53" height="30" as="alternateBounds" />
          </mxGeometry>
        </mxCell>
        <mxCell id="5aQSM23evN0nxybhoEWe-247" value="ID_Eventos" style="shape=partialRectangle;html=1;whiteSpace=wrap;connectable=0;fillColor=none;top=0;left=0;bottom=0;right=0;align=left;spacingLeft=6;overflow=hidden;strokeColor=inherit;fontSize=16;" parent="5aQSM23evN0nxybhoEWe-245" vertex="1">
          <mxGeometry x="53" width="187" height="30" as="geometry">
            <mxRectangle width="187" height="30" as="alternateBounds" />
          </mxGeometry>
        </mxCell>
        <mxCell id="5aQSM23evN0nxybhoEWe-248" value="" style="shape=tableRow;horizontal=0;startSize=0;swimlaneHead=0;swimlaneBody=0;top=0;left=0;bottom=0;right=0;collapsible=0;dropTarget=0;fillColor=none;points=[[0,0.5],[1,0.5]];portConstraint=eastwest;strokeColor=inherit;fontSize=16;" parent="5aQSM23evN0nxybhoEWe-244" vertex="1">
          <mxGeometry y="60" width="240" height="30" as="geometry" />
        </mxCell>
        <mxCell id="5aQSM23evN0nxybhoEWe-249" value="" style="shape=partialRectangle;html=1;whiteSpace=wrap;connectable=0;fillColor=none;top=0;left=0;bottom=0;right=0;overflow=hidden;strokeColor=inherit;fontSize=16;" parent="5aQSM23evN0nxybhoEWe-248" vertex="1">
          <mxGeometry width="53" height="30" as="geometry">
            <mxRectangle width="53" height="30" as="alternateBounds" />
          </mxGeometry>
        </mxCell>
        <mxCell id="5aQSM23evN0nxybhoEWe-250" value="Fecha_Hora" style="shape=partialRectangle;html=1;whiteSpace=wrap;connectable=0;fillColor=none;top=0;left=0;bottom=0;right=0;align=left;spacingLeft=6;overflow=hidden;strokeColor=inherit;fontSize=16;" parent="5aQSM23evN0nxybhoEWe-248" vertex="1">
          <mxGeometry x="53" width="187" height="30" as="geometry">
            <mxRectangle width="187" height="30" as="alternateBounds" />
          </mxGeometry>
        </mxCell>
        <mxCell id="5aQSM23evN0nxybhoEWe-254" style="shape=tableRow;horizontal=0;startSize=0;swimlaneHead=0;swimlaneBody=0;top=0;left=0;bottom=0;right=0;collapsible=0;dropTarget=0;fillColor=none;points=[[0,0.5],[1,0.5]];portConstraint=eastwest;strokeColor=inherit;fontSize=16;" parent="5aQSM23evN0nxybhoEWe-244" vertex="1">
          <mxGeometry y="90" width="240" height="30" as="geometry" />
        </mxCell>
        <mxCell id="5aQSM23evN0nxybhoEWe-255" value="FK" style="shape=partialRectangle;html=1;whiteSpace=wrap;connectable=0;fillColor=none;top=0;left=0;bottom=0;right=0;overflow=hidden;strokeColor=inherit;fontSize=16;" parent="5aQSM23evN0nxybhoEWe-254" vertex="1">
          <mxGeometry width="53" height="30" as="geometry">
            <mxRectangle width="53" height="30" as="alternateBounds" />
          </mxGeometry>
        </mxCell>
        <mxCell id="5aQSM23evN0nxybhoEWe-256" value="Tipo" style="shape=partialRectangle;html=1;whiteSpace=wrap;connectable=0;fillColor=none;top=0;left=0;bottom=0;right=0;align=left;spacingLeft=6;overflow=hidden;strokeColor=inherit;fontSize=16;" parent="5aQSM23evN0nxybhoEWe-254" vertex="1">
          <mxGeometry x="53" width="187" height="30" as="geometry">
            <mxRectangle width="187" height="30" as="alternateBounds" />
          </mxGeometry>
        </mxCell>
        <mxCell id="5aQSM23evN0nxybhoEWe-257" value="Comunidad_Eventos" style="shape=table;startSize=30;container=1;collapsible=0;childLayout=tableLayout;fixedRows=1;rowLines=0;fontStyle=0;strokeColor=default;fontSize=16;" parent="1" vertex="1">
          <mxGeometry x="1260" y="410" width="240" height="90" as="geometry" />
        </mxCell>
        <mxCell id="5aQSM23evN0nxybhoEWe-258" value="" style="shape=tableRow;horizontal=0;startSize=0;swimlaneHead=0;swimlaneBody=0;top=0;left=0;bottom=0;right=0;collapsible=0;dropTarget=0;fillColor=none;points=[[0,0.5],[1,0.5]];portConstraint=eastwest;strokeColor=inherit;fontSize=16;" parent="5aQSM23evN0nxybhoEWe-257" vertex="1">
          <mxGeometry y="30" width="240" height="30" as="geometry" />
        </mxCell>
        <mxCell id="5aQSM23evN0nxybhoEWe-259" value="PK" style="shape=partialRectangle;html=1;whiteSpace=wrap;connectable=0;fillColor=none;top=0;left=0;bottom=0;right=0;overflow=hidden;pointerEvents=1;strokeColor=inherit;fontSize=16;" parent="5aQSM23evN0nxybhoEWe-258" vertex="1">
          <mxGeometry width="53" height="30" as="geometry">
            <mxRectangle width="53" height="30" as="alternateBounds" />
          </mxGeometry>
        </mxCell>
        <mxCell id="5aQSM23evN0nxybhoEWe-260" value="ID_Eventos" style="shape=partialRectangle;html=1;whiteSpace=wrap;connectable=0;fillColor=none;top=0;left=0;bottom=0;right=0;align=left;spacingLeft=6;overflow=hidden;strokeColor=inherit;fontSize=16;" parent="5aQSM23evN0nxybhoEWe-258" vertex="1">
          <mxGeometry x="53" width="187" height="30" as="geometry">
            <mxRectangle width="187" height="30" as="alternateBounds" />
          </mxGeometry>
        </mxCell>
        <mxCell id="5aQSM23evN0nxybhoEWe-261" value="" style="shape=tableRow;horizontal=0;startSize=0;swimlaneHead=0;swimlaneBody=0;top=0;left=0;bottom=0;right=0;collapsible=0;dropTarget=0;fillColor=none;points=[[0,0.5],[1,0.5]];portConstraint=eastwest;strokeColor=inherit;fontSize=16;" parent="5aQSM23evN0nxybhoEWe-257" vertex="1">
          <mxGeometry y="60" width="240" height="30" as="geometry" />
        </mxCell>
        <mxCell id="5aQSM23evN0nxybhoEWe-262" value="FK" style="shape=partialRectangle;html=1;whiteSpace=wrap;connectable=0;fillColor=none;top=0;left=0;bottom=0;right=0;overflow=hidden;strokeColor=inherit;fontSize=16;" parent="5aQSM23evN0nxybhoEWe-261" vertex="1">
          <mxGeometry width="53" height="30" as="geometry">
            <mxRectangle width="53" height="30" as="alternateBounds" />
          </mxGeometry>
        </mxCell>
        <mxCell id="5aQSM23evN0nxybhoEWe-263" value="ID_Comunidad" style="shape=partialRectangle;html=1;whiteSpace=wrap;connectable=0;fillColor=none;top=0;left=0;bottom=0;right=0;align=left;spacingLeft=6;overflow=hidden;strokeColor=inherit;fontSize=16;" parent="5aQSM23evN0nxybhoEWe-261" vertex="1">
          <mxGeometry x="53" width="187" height="30" as="geometry">
            <mxRectangle width="187" height="30" as="alternateBounds" />
          </mxGeometry>
        </mxCell>
        <mxCell id="5aQSM23evN0nxybhoEWe-280" value="Tipo_Evento" style="shape=table;startSize=30;container=1;collapsible=0;childLayout=tableLayout;fixedRows=1;rowLines=0;fontStyle=0;strokeColor=default;fontSize=16;" parent="1" vertex="1">
          <mxGeometry x="1520" y="590" width="240" height="60" as="geometry" />
        </mxCell>
        <mxCell id="5aQSM23evN0nxybhoEWe-281" value="" style="shape=tableRow;horizontal=0;startSize=0;swimlaneHead=0;swimlaneBody=0;top=0;left=0;bottom=0;right=0;collapsible=0;dropTarget=0;fillColor=none;points=[[0,0.5],[1,0.5]];portConstraint=eastwest;strokeColor=inherit;fontSize=16;" parent="5aQSM23evN0nxybhoEWe-280" vertex="1">
          <mxGeometry y="30" width="240" height="30" as="geometry" />
        </mxCell>
        <mxCell id="5aQSM23evN0nxybhoEWe-282" value="PK" style="shape=partialRectangle;html=1;whiteSpace=wrap;connectable=0;fillColor=none;top=0;left=0;bottom=0;right=0;overflow=hidden;pointerEvents=1;strokeColor=inherit;fontSize=16;" parent="5aQSM23evN0nxybhoEWe-281" vertex="1">
          <mxGeometry width="53" height="30" as="geometry">
            <mxRectangle width="53" height="30" as="alternateBounds" />
          </mxGeometry>
        </mxCell>
        <mxCell id="5aQSM23evN0nxybhoEWe-283" value="Tipo" style="shape=partialRectangle;html=1;whiteSpace=wrap;connectable=0;fillColor=none;top=0;left=0;bottom=0;right=0;align=left;spacingLeft=6;overflow=hidden;strokeColor=inherit;fontSize=16;" parent="5aQSM23evN0nxybhoEWe-281" vertex="1">
          <mxGeometry x="53" width="187" height="30" as="geometry">
            <mxRectangle width="187" height="30" as="alternateBounds" />
          </mxGeometry>
        </mxCell>
        <mxCell id="5aQSM23evN0nxybhoEWe-284" value="Publicacion" style="shape=table;startSize=30;container=1;collapsible=0;childLayout=tableLayout;fixedRows=1;rowLines=0;fontStyle=0;strokeColor=default;fontSize=16;" parent="1" vertex="1">
          <mxGeometry x="-730" y="430" width="240" height="210" as="geometry" />
        </mxCell>
        <mxCell id="5aQSM23evN0nxybhoEWe-285" value="" style="shape=tableRow;horizontal=0;startSize=0;swimlaneHead=0;swimlaneBody=0;top=0;left=0;bottom=0;right=0;collapsible=0;dropTarget=0;fillColor=none;points=[[0,0.5],[1,0.5]];portConstraint=eastwest;strokeColor=inherit;fontSize=16;" parent="5aQSM23evN0nxybhoEWe-284" vertex="1">
          <mxGeometry y="30" width="240" height="30" as="geometry" />
        </mxCell>
        <mxCell id="5aQSM23evN0nxybhoEWe-286" value="PK" style="shape=partialRectangle;html=1;whiteSpace=wrap;connectable=0;fillColor=none;top=0;left=0;bottom=0;right=0;overflow=hidden;pointerEvents=1;strokeColor=inherit;fontSize=16;" parent="5aQSM23evN0nxybhoEWe-285" vertex="1">
          <mxGeometry width="53" height="30" as="geometry">
            <mxRectangle width="53" height="30" as="alternateBounds" />
          </mxGeometry>
        </mxCell>
        <mxCell id="5aQSM23evN0nxybhoEWe-287" value="ID_Publicacion" style="shape=partialRectangle;html=1;whiteSpace=wrap;connectable=0;fillColor=none;top=0;left=0;bottom=0;right=0;align=left;spacingLeft=6;overflow=hidden;strokeColor=inherit;fontSize=16;" parent="5aQSM23evN0nxybhoEWe-285" vertex="1">
          <mxGeometry x="53" width="187" height="30" as="geometry">
            <mxRectangle width="187" height="30" as="alternateBounds" />
          </mxGeometry>
        </mxCell>
        <mxCell id="5aQSM23evN0nxybhoEWe-288" value="" style="shape=tableRow;horizontal=0;startSize=0;swimlaneHead=0;swimlaneBody=0;top=0;left=0;bottom=0;right=0;collapsible=0;dropTarget=0;fillColor=none;points=[[0,0.5],[1,0.5]];portConstraint=eastwest;strokeColor=inherit;fontSize=16;" parent="5aQSM23evN0nxybhoEWe-284" vertex="1">
          <mxGeometry y="60" width="240" height="30" as="geometry" />
        </mxCell>
        <mxCell id="5aQSM23evN0nxybhoEWe-289" value="" style="shape=partialRectangle;html=1;whiteSpace=wrap;connectable=0;fillColor=none;top=0;left=0;bottom=0;right=0;overflow=hidden;strokeColor=inherit;fontSize=16;" parent="5aQSM23evN0nxybhoEWe-288" vertex="1">
          <mxGeometry width="53" height="30" as="geometry">
            <mxRectangle width="53" height="30" as="alternateBounds" />
          </mxGeometry>
        </mxCell>
        <mxCell id="5aQSM23evN0nxybhoEWe-290" value="Contenido" style="shape=partialRectangle;html=1;whiteSpace=wrap;connectable=0;fillColor=none;top=0;left=0;bottom=0;right=0;align=left;spacingLeft=6;overflow=hidden;strokeColor=inherit;fontSize=16;" parent="5aQSM23evN0nxybhoEWe-288" vertex="1">
          <mxGeometry x="53" width="187" height="30" as="geometry">
            <mxRectangle width="187" height="30" as="alternateBounds" />
          </mxGeometry>
        </mxCell>
        <mxCell id="5aQSM23evN0nxybhoEWe-291" value="" style="shape=tableRow;horizontal=0;startSize=0;swimlaneHead=0;swimlaneBody=0;top=0;left=0;bottom=0;right=0;collapsible=0;dropTarget=0;fillColor=none;points=[[0,0.5],[1,0.5]];portConstraint=eastwest;strokeColor=inherit;fontSize=16;" parent="5aQSM23evN0nxybhoEWe-284" vertex="1">
          <mxGeometry y="90" width="240" height="30" as="geometry" />
        </mxCell>
        <mxCell id="5aQSM23evN0nxybhoEWe-292" value="" style="shape=partialRectangle;html=1;whiteSpace=wrap;connectable=0;fillColor=none;top=0;left=0;bottom=0;right=0;overflow=hidden;strokeColor=inherit;fontSize=16;" parent="5aQSM23evN0nxybhoEWe-291" vertex="1">
          <mxGeometry width="53" height="30" as="geometry">
            <mxRectangle width="53" height="30" as="alternateBounds" />
          </mxGeometry>
        </mxCell>
        <mxCell id="5aQSM23evN0nxybhoEWe-293" value="ID_Autor" style="shape=partialRectangle;html=1;whiteSpace=wrap;connectable=0;fillColor=none;top=0;left=0;bottom=0;right=0;align=left;spacingLeft=6;overflow=hidden;strokeColor=inherit;fontSize=16;" parent="5aQSM23evN0nxybhoEWe-291" vertex="1">
          <mxGeometry x="53" width="187" height="30" as="geometry">
            <mxRectangle width="187" height="30" as="alternateBounds" />
          </mxGeometry>
        </mxCell>
        <mxCell id="5aQSM23evN0nxybhoEWe-297" style="shape=tableRow;horizontal=0;startSize=0;swimlaneHead=0;swimlaneBody=0;top=0;left=0;bottom=0;right=0;collapsible=0;dropTarget=0;fillColor=none;points=[[0,0.5],[1,0.5]];portConstraint=eastwest;strokeColor=inherit;fontSize=16;" parent="5aQSM23evN0nxybhoEWe-284" vertex="1">
          <mxGeometry y="120" width="240" height="30" as="geometry" />
        </mxCell>
        <mxCell id="5aQSM23evN0nxybhoEWe-298" style="shape=partialRectangle;html=1;whiteSpace=wrap;connectable=0;fillColor=none;top=0;left=0;bottom=0;right=0;overflow=hidden;strokeColor=inherit;fontSize=16;" parent="5aQSM23evN0nxybhoEWe-297" vertex="1">
          <mxGeometry width="53" height="30" as="geometry">
            <mxRectangle width="53" height="30" as="alternateBounds" />
          </mxGeometry>
        </mxCell>
        <mxCell id="5aQSM23evN0nxybhoEWe-299" value="Fecha_Publicacion" style="shape=partialRectangle;html=1;whiteSpace=wrap;connectable=0;fillColor=none;top=0;left=0;bottom=0;right=0;align=left;spacingLeft=6;overflow=hidden;strokeColor=inherit;fontSize=16;" parent="5aQSM23evN0nxybhoEWe-297" vertex="1">
          <mxGeometry x="53" width="187" height="30" as="geometry">
            <mxRectangle width="187" height="30" as="alternateBounds" />
          </mxGeometry>
        </mxCell>
        <mxCell id="5aQSM23evN0nxybhoEWe-294" style="shape=tableRow;horizontal=0;startSize=0;swimlaneHead=0;swimlaneBody=0;top=0;left=0;bottom=0;right=0;collapsible=0;dropTarget=0;fillColor=none;points=[[0,0.5],[1,0.5]];portConstraint=eastwest;strokeColor=inherit;fontSize=16;" parent="5aQSM23evN0nxybhoEWe-284" vertex="1">
          <mxGeometry y="150" width="240" height="30" as="geometry" />
        </mxCell>
        <mxCell id="5aQSM23evN0nxybhoEWe-295" style="shape=partialRectangle;html=1;whiteSpace=wrap;connectable=0;fillColor=none;top=0;left=0;bottom=0;right=0;overflow=hidden;strokeColor=inherit;fontSize=16;" parent="5aQSM23evN0nxybhoEWe-294" vertex="1">
          <mxGeometry width="53" height="30" as="geometry">
            <mxRectangle width="53" height="30" as="alternateBounds" />
          </mxGeometry>
        </mxCell>
        <mxCell id="5aQSM23evN0nxybhoEWe-296" value="Etiqueta" style="shape=partialRectangle;html=1;whiteSpace=wrap;connectable=0;fillColor=none;top=0;left=0;bottom=0;right=0;align=left;spacingLeft=6;overflow=hidden;strokeColor=inherit;fontSize=16;" parent="5aQSM23evN0nxybhoEWe-294" vertex="1">
          <mxGeometry x="53" width="187" height="30" as="geometry">
            <mxRectangle width="187" height="30" as="alternateBounds" />
          </mxGeometry>
        </mxCell>
        <mxCell id="5aQSM23evN0nxybhoEWe-317" style="shape=tableRow;horizontal=0;startSize=0;swimlaneHead=0;swimlaneBody=0;top=0;left=0;bottom=0;right=0;collapsible=0;dropTarget=0;fillColor=none;points=[[0,0.5],[1,0.5]];portConstraint=eastwest;strokeColor=inherit;fontSize=16;" parent="5aQSM23evN0nxybhoEWe-284" vertex="1">
          <mxGeometry y="180" width="240" height="30" as="geometry" />
        </mxCell>
        <mxCell id="5aQSM23evN0nxybhoEWe-318" value="FK" style="shape=partialRectangle;html=1;whiteSpace=wrap;connectable=0;fillColor=none;top=0;left=0;bottom=0;right=0;overflow=hidden;strokeColor=inherit;fontSize=16;" parent="5aQSM23evN0nxybhoEWe-317" vertex="1">
          <mxGeometry width="53" height="30" as="geometry">
            <mxRectangle width="53" height="30" as="alternateBounds" />
          </mxGeometry>
        </mxCell>
        <mxCell id="5aQSM23evN0nxybhoEWe-319" value="Tipo" style="shape=partialRectangle;html=1;whiteSpace=wrap;connectable=0;fillColor=none;top=0;left=0;bottom=0;right=0;align=left;spacingLeft=6;overflow=hidden;strokeColor=inherit;fontSize=16;" parent="5aQSM23evN0nxybhoEWe-317" vertex="1">
          <mxGeometry x="53" width="187" height="30" as="geometry">
            <mxRectangle width="187" height="30" as="alternateBounds" />
          </mxGeometry>
        </mxCell>
        <mxCell id="_7q5wml3us1lX0jzosAX-12" style="edgeStyle=orthogonalEdgeStyle;rounded=0;orthogonalLoop=1;jettySize=auto;html=1;exitX=1;exitY=0.25;exitDx=0;exitDy=0;entryX=0;entryY=0.5;entryDx=0;entryDy=0;endArrow=none;endFill=0;" edge="1" parent="1" source="5aQSM23evN0nxybhoEWe-310" target="5aQSM23evN0nxybhoEWe-208">
          <mxGeometry relative="1" as="geometry" />
        </mxCell>
        <mxCell id="5aQSM23evN0nxybhoEWe-310" value="Publican" style="shape=table;startSize=30;container=1;collapsible=0;childLayout=tableLayout;fixedRows=1;rowLines=0;fontStyle=0;strokeColor=default;fontSize=16;" parent="1" vertex="1">
          <mxGeometry x="-290" y="990" width="240" height="90" as="geometry" />
        </mxCell>
        <mxCell id="5aQSM23evN0nxybhoEWe-311" value="" style="shape=tableRow;horizontal=0;startSize=0;swimlaneHead=0;swimlaneBody=0;top=0;left=0;bottom=0;right=0;collapsible=0;dropTarget=0;fillColor=none;points=[[0,0.5],[1,0.5]];portConstraint=eastwest;strokeColor=inherit;fontSize=16;" parent="5aQSM23evN0nxybhoEWe-310" vertex="1">
          <mxGeometry y="30" width="240" height="30" as="geometry" />
        </mxCell>
        <mxCell id="5aQSM23evN0nxybhoEWe-312" value="PK" style="shape=partialRectangle;html=1;whiteSpace=wrap;connectable=0;fillColor=none;top=0;left=0;bottom=0;right=0;overflow=hidden;pointerEvents=1;strokeColor=inherit;fontSize=16;" parent="5aQSM23evN0nxybhoEWe-311" vertex="1">
          <mxGeometry width="53" height="30" as="geometry">
            <mxRectangle width="53" height="30" as="alternateBounds" />
          </mxGeometry>
        </mxCell>
        <mxCell id="5aQSM23evN0nxybhoEWe-313" value="ID_Publiacion" style="shape=partialRectangle;html=1;whiteSpace=wrap;connectable=0;fillColor=none;top=0;left=0;bottom=0;right=0;align=left;spacingLeft=6;overflow=hidden;strokeColor=inherit;fontSize=16;" parent="5aQSM23evN0nxybhoEWe-311" vertex="1">
          <mxGeometry x="53" width="187" height="30" as="geometry">
            <mxRectangle width="187" height="30" as="alternateBounds" />
          </mxGeometry>
        </mxCell>
        <mxCell id="5aQSM23evN0nxybhoEWe-314" value="" style="shape=tableRow;horizontal=0;startSize=0;swimlaneHead=0;swimlaneBody=0;top=0;left=0;bottom=0;right=0;collapsible=0;dropTarget=0;fillColor=none;points=[[0,0.5],[1,0.5]];portConstraint=eastwest;strokeColor=inherit;fontSize=16;" parent="5aQSM23evN0nxybhoEWe-310" vertex="1">
          <mxGeometry y="60" width="240" height="30" as="geometry" />
        </mxCell>
        <mxCell id="5aQSM23evN0nxybhoEWe-315" value="PK" style="shape=partialRectangle;html=1;whiteSpace=wrap;connectable=0;fillColor=none;top=0;left=0;bottom=0;right=0;overflow=hidden;strokeColor=inherit;fontSize=16;" parent="5aQSM23evN0nxybhoEWe-314" vertex="1">
          <mxGeometry width="53" height="30" as="geometry">
            <mxRectangle width="53" height="30" as="alternateBounds" />
          </mxGeometry>
        </mxCell>
        <mxCell id="5aQSM23evN0nxybhoEWe-316" value="ID_Comunidad" style="shape=partialRectangle;html=1;whiteSpace=wrap;connectable=0;fillColor=none;top=0;left=0;bottom=0;right=0;align=left;spacingLeft=6;overflow=hidden;strokeColor=inherit;fontSize=16;" parent="5aQSM23evN0nxybhoEWe-314" vertex="1">
          <mxGeometry x="53" width="187" height="30" as="geometry">
            <mxRectangle width="187" height="30" as="alternateBounds" />
          </mxGeometry>
        </mxCell>
        <mxCell id="5aQSM23evN0nxybhoEWe-320" value="Comentario" style="shape=table;startSize=30;container=1;collapsible=0;childLayout=tableLayout;fixedRows=1;rowLines=0;fontStyle=0;strokeColor=default;fontSize=16;" parent="1" vertex="1">
          <mxGeometry x="-199" y="520" width="240" height="180" as="geometry" />
        </mxCell>
        <mxCell id="5aQSM23evN0nxybhoEWe-321" value="" style="shape=tableRow;horizontal=0;startSize=0;swimlaneHead=0;swimlaneBody=0;top=0;left=0;bottom=0;right=0;collapsible=0;dropTarget=0;fillColor=none;points=[[0,0.5],[1,0.5]];portConstraint=eastwest;strokeColor=inherit;fontSize=16;" parent="5aQSM23evN0nxybhoEWe-320" vertex="1">
          <mxGeometry y="30" width="240" height="30" as="geometry" />
        </mxCell>
        <mxCell id="5aQSM23evN0nxybhoEWe-322" value="PK" style="shape=partialRectangle;html=1;whiteSpace=wrap;connectable=0;fillColor=none;top=0;left=0;bottom=0;right=0;overflow=hidden;pointerEvents=1;strokeColor=inherit;fontSize=16;" parent="5aQSM23evN0nxybhoEWe-321" vertex="1">
          <mxGeometry width="53" height="30" as="geometry">
            <mxRectangle width="53" height="30" as="alternateBounds" />
          </mxGeometry>
        </mxCell>
        <mxCell id="5aQSM23evN0nxybhoEWe-323" value="ID_Comentario" style="shape=partialRectangle;html=1;whiteSpace=wrap;connectable=0;fillColor=none;top=0;left=0;bottom=0;right=0;align=left;spacingLeft=6;overflow=hidden;strokeColor=inherit;fontSize=16;" parent="5aQSM23evN0nxybhoEWe-321" vertex="1">
          <mxGeometry x="53" width="187" height="30" as="geometry">
            <mxRectangle width="187" height="30" as="alternateBounds" />
          </mxGeometry>
        </mxCell>
        <mxCell id="5aQSM23evN0nxybhoEWe-324" value="" style="shape=tableRow;horizontal=0;startSize=0;swimlaneHead=0;swimlaneBody=0;top=0;left=0;bottom=0;right=0;collapsible=0;dropTarget=0;fillColor=none;points=[[0,0.5],[1,0.5]];portConstraint=eastwest;strokeColor=inherit;fontSize=16;" parent="5aQSM23evN0nxybhoEWe-320" vertex="1">
          <mxGeometry y="60" width="240" height="30" as="geometry" />
        </mxCell>
        <mxCell id="5aQSM23evN0nxybhoEWe-325" value="" style="shape=partialRectangle;html=1;whiteSpace=wrap;connectable=0;fillColor=none;top=0;left=0;bottom=0;right=0;overflow=hidden;strokeColor=inherit;fontSize=16;" parent="5aQSM23evN0nxybhoEWe-324" vertex="1">
          <mxGeometry width="53" height="30" as="geometry">
            <mxRectangle width="53" height="30" as="alternateBounds" />
          </mxGeometry>
        </mxCell>
        <mxCell id="5aQSM23evN0nxybhoEWe-326" value="Fecha_Comentario" style="shape=partialRectangle;html=1;whiteSpace=wrap;connectable=0;fillColor=none;top=0;left=0;bottom=0;right=0;align=left;spacingLeft=6;overflow=hidden;strokeColor=inherit;fontSize=16;" parent="5aQSM23evN0nxybhoEWe-324" vertex="1">
          <mxGeometry x="53" width="187" height="30" as="geometry">
            <mxRectangle width="187" height="30" as="alternateBounds" />
          </mxGeometry>
        </mxCell>
        <mxCell id="5aQSM23evN0nxybhoEWe-327" value="" style="shape=tableRow;horizontal=0;startSize=0;swimlaneHead=0;swimlaneBody=0;top=0;left=0;bottom=0;right=0;collapsible=0;dropTarget=0;fillColor=none;points=[[0,0.5],[1,0.5]];portConstraint=eastwest;strokeColor=inherit;fontSize=16;" parent="5aQSM23evN0nxybhoEWe-320" vertex="1">
          <mxGeometry y="90" width="240" height="30" as="geometry" />
        </mxCell>
        <mxCell id="5aQSM23evN0nxybhoEWe-328" value="" style="shape=partialRectangle;html=1;whiteSpace=wrap;connectable=0;fillColor=none;top=0;left=0;bottom=0;right=0;overflow=hidden;strokeColor=inherit;fontSize=16;" parent="5aQSM23evN0nxybhoEWe-327" vertex="1">
          <mxGeometry width="53" height="30" as="geometry">
            <mxRectangle width="53" height="30" as="alternateBounds" />
          </mxGeometry>
        </mxCell>
        <mxCell id="5aQSM23evN0nxybhoEWe-329" value="Contenido" style="shape=partialRectangle;html=1;whiteSpace=wrap;connectable=0;fillColor=none;top=0;left=0;bottom=0;right=0;align=left;spacingLeft=6;overflow=hidden;strokeColor=inherit;fontSize=16;" parent="5aQSM23evN0nxybhoEWe-327" vertex="1">
          <mxGeometry x="53" width="187" height="30" as="geometry">
            <mxRectangle width="187" height="30" as="alternateBounds" />
          </mxGeometry>
        </mxCell>
        <mxCell id="5aQSM23evN0nxybhoEWe-336" style="shape=tableRow;horizontal=0;startSize=0;swimlaneHead=0;swimlaneBody=0;top=0;left=0;bottom=0;right=0;collapsible=0;dropTarget=0;fillColor=none;points=[[0,0.5],[1,0.5]];portConstraint=eastwest;strokeColor=inherit;fontSize=16;" parent="5aQSM23evN0nxybhoEWe-320" vertex="1">
          <mxGeometry y="120" width="240" height="30" as="geometry" />
        </mxCell>
        <mxCell id="5aQSM23evN0nxybhoEWe-337" value="FK" style="shape=partialRectangle;html=1;whiteSpace=wrap;connectable=0;fillColor=none;top=0;left=0;bottom=0;right=0;overflow=hidden;strokeColor=inherit;fontSize=16;" parent="5aQSM23evN0nxybhoEWe-336" vertex="1">
          <mxGeometry width="53" height="30" as="geometry">
            <mxRectangle width="53" height="30" as="alternateBounds" />
          </mxGeometry>
        </mxCell>
        <mxCell id="5aQSM23evN0nxybhoEWe-338" value="ID_Usuario" style="shape=partialRectangle;html=1;whiteSpace=wrap;connectable=0;fillColor=none;top=0;left=0;bottom=0;right=0;align=left;spacingLeft=6;overflow=hidden;strokeColor=inherit;fontSize=16;" parent="5aQSM23evN0nxybhoEWe-336" vertex="1">
          <mxGeometry x="53" width="187" height="30" as="geometry">
            <mxRectangle width="187" height="30" as="alternateBounds" />
          </mxGeometry>
        </mxCell>
        <mxCell id="5aQSM23evN0nxybhoEWe-333" style="shape=tableRow;horizontal=0;startSize=0;swimlaneHead=0;swimlaneBody=0;top=0;left=0;bottom=0;right=0;collapsible=0;dropTarget=0;fillColor=none;points=[[0,0.5],[1,0.5]];portConstraint=eastwest;strokeColor=inherit;fontSize=16;" parent="5aQSM23evN0nxybhoEWe-320" vertex="1">
          <mxGeometry y="150" width="240" height="30" as="geometry" />
        </mxCell>
        <mxCell id="5aQSM23evN0nxybhoEWe-334" value="FK" style="shape=partialRectangle;html=1;whiteSpace=wrap;connectable=0;fillColor=none;top=0;left=0;bottom=0;right=0;overflow=hidden;strokeColor=inherit;fontSize=16;" parent="5aQSM23evN0nxybhoEWe-333" vertex="1">
          <mxGeometry width="53" height="30" as="geometry">
            <mxRectangle width="53" height="30" as="alternateBounds" />
          </mxGeometry>
        </mxCell>
        <mxCell id="5aQSM23evN0nxybhoEWe-335" value="ID_Publicacion" style="shape=partialRectangle;html=1;whiteSpace=wrap;connectable=0;fillColor=none;top=0;left=0;bottom=0;right=0;align=left;spacingLeft=6;overflow=hidden;strokeColor=inherit;fontSize=16;" parent="5aQSM23evN0nxybhoEWe-333" vertex="1">
          <mxGeometry x="53" width="187" height="30" as="geometry">
            <mxRectangle width="187" height="30" as="alternateBounds" />
          </mxGeometry>
        </mxCell>
        <mxCell id="5aQSM23evN0nxybhoEWe-339" value="Tipo_Publicacion" style="shape=table;startSize=30;container=1;collapsible=0;childLayout=tableLayout;fixedRows=1;rowLines=0;fontStyle=0;strokeColor=default;fontSize=16;" parent="1" vertex="1">
          <mxGeometry x="-320" y="785" width="239" height="60" as="geometry" />
        </mxCell>
        <mxCell id="5aQSM23evN0nxybhoEWe-340" value="" style="shape=tableRow;horizontal=0;startSize=0;swimlaneHead=0;swimlaneBody=0;top=0;left=0;bottom=0;right=0;collapsible=0;dropTarget=0;fillColor=none;points=[[0,0.5],[1,0.5]];portConstraint=eastwest;strokeColor=inherit;fontSize=16;" parent="5aQSM23evN0nxybhoEWe-339" vertex="1">
          <mxGeometry y="30" width="239" height="30" as="geometry" />
        </mxCell>
        <mxCell id="5aQSM23evN0nxybhoEWe-341" value="PK" style="shape=partialRectangle;html=1;whiteSpace=wrap;connectable=0;fillColor=none;top=0;left=0;bottom=0;right=0;overflow=hidden;pointerEvents=1;strokeColor=inherit;fontSize=16;" parent="5aQSM23evN0nxybhoEWe-340" vertex="1">
          <mxGeometry width="53" height="30" as="geometry">
            <mxRectangle width="53" height="30" as="alternateBounds" />
          </mxGeometry>
        </mxCell>
        <mxCell id="5aQSM23evN0nxybhoEWe-342" value="Tipo" style="shape=partialRectangle;html=1;whiteSpace=wrap;connectable=0;fillColor=none;top=0;left=0;bottom=0;right=0;align=left;spacingLeft=6;overflow=hidden;strokeColor=inherit;fontSize=16;" parent="5aQSM23evN0nxybhoEWe-340" vertex="1">
          <mxGeometry x="53" width="186" height="30" as="geometry">
            <mxRectangle width="186" height="30" as="alternateBounds" />
          </mxGeometry>
        </mxCell>
        <mxCell id="_7q5wml3us1lX0jzosAX-18" style="edgeStyle=orthogonalEdgeStyle;rounded=0;orthogonalLoop=1;jettySize=auto;html=1;exitX=0.5;exitY=0;exitDx=0;exitDy=0;entryX=1;entryY=0.5;entryDx=0;entryDy=0;endArrow=none;endFill=0;" edge="1" parent="1" source="5aQSM23evN0nxybhoEWe-343" target="5aQSM23evN0nxybhoEWe-357">
          <mxGeometry relative="1" as="geometry" />
        </mxCell>
        <mxCell id="5aQSM23evN0nxybhoEWe-343" value="Reaccion" style="shape=table;startSize=30;container=1;collapsible=0;childLayout=tableLayout;fixedRows=1;rowLines=0;fontStyle=0;strokeColor=default;fontSize=16;" parent="1" vertex="1">
          <mxGeometry x="-199" y="280" width="239" height="150" as="geometry" />
        </mxCell>
        <mxCell id="5aQSM23evN0nxybhoEWe-344" value="" style="shape=tableRow;horizontal=0;startSize=0;swimlaneHead=0;swimlaneBody=0;top=0;left=0;bottom=0;right=0;collapsible=0;dropTarget=0;fillColor=none;points=[[0,0.5],[1,0.5]];portConstraint=eastwest;strokeColor=inherit;fontSize=16;" parent="5aQSM23evN0nxybhoEWe-343" vertex="1">
          <mxGeometry y="30" width="239" height="30" as="geometry" />
        </mxCell>
        <mxCell id="5aQSM23evN0nxybhoEWe-345" value="PK" style="shape=partialRectangle;html=1;whiteSpace=wrap;connectable=0;fillColor=none;top=0;left=0;bottom=0;right=0;overflow=hidden;pointerEvents=1;strokeColor=inherit;fontSize=16;" parent="5aQSM23evN0nxybhoEWe-344" vertex="1">
          <mxGeometry width="53" height="30" as="geometry">
            <mxRectangle width="53" height="30" as="alternateBounds" />
          </mxGeometry>
        </mxCell>
        <mxCell id="5aQSM23evN0nxybhoEWe-346" value="ID_Reaccion" style="shape=partialRectangle;html=1;whiteSpace=wrap;connectable=0;fillColor=none;top=0;left=0;bottom=0;right=0;align=left;spacingLeft=6;overflow=hidden;strokeColor=inherit;fontSize=16;" parent="5aQSM23evN0nxybhoEWe-344" vertex="1">
          <mxGeometry x="53" width="186" height="30" as="geometry">
            <mxRectangle width="186" height="30" as="alternateBounds" />
          </mxGeometry>
        </mxCell>
        <mxCell id="5aQSM23evN0nxybhoEWe-353" style="shape=tableRow;horizontal=0;startSize=0;swimlaneHead=0;swimlaneBody=0;top=0;left=0;bottom=0;right=0;collapsible=0;dropTarget=0;fillColor=none;points=[[0,0.5],[1,0.5]];portConstraint=eastwest;strokeColor=inherit;fontSize=16;" parent="5aQSM23evN0nxybhoEWe-343" vertex="1">
          <mxGeometry y="60" width="239" height="30" as="geometry" />
        </mxCell>
        <mxCell id="5aQSM23evN0nxybhoEWe-354" style="shape=partialRectangle;html=1;whiteSpace=wrap;connectable=0;fillColor=none;top=0;left=0;bottom=0;right=0;overflow=hidden;pointerEvents=1;strokeColor=inherit;fontSize=16;" parent="5aQSM23evN0nxybhoEWe-353" vertex="1">
          <mxGeometry width="53" height="30" as="geometry">
            <mxRectangle width="53" height="30" as="alternateBounds" />
          </mxGeometry>
        </mxCell>
        <mxCell id="5aQSM23evN0nxybhoEWe-355" value="Fecha_Reaccion" style="shape=partialRectangle;html=1;whiteSpace=wrap;connectable=0;fillColor=none;top=0;left=0;bottom=0;right=0;align=left;spacingLeft=6;overflow=hidden;strokeColor=inherit;fontSize=16;" parent="5aQSM23evN0nxybhoEWe-353" vertex="1">
          <mxGeometry x="53" width="186" height="30" as="geometry">
            <mxRectangle width="186" height="30" as="alternateBounds" />
          </mxGeometry>
        </mxCell>
        <mxCell id="5aQSM23evN0nxybhoEWe-350" style="shape=tableRow;horizontal=0;startSize=0;swimlaneHead=0;swimlaneBody=0;top=0;left=0;bottom=0;right=0;collapsible=0;dropTarget=0;fillColor=none;points=[[0,0.5],[1,0.5]];portConstraint=eastwest;strokeColor=inherit;fontSize=16;" parent="5aQSM23evN0nxybhoEWe-343" vertex="1">
          <mxGeometry y="90" width="239" height="30" as="geometry" />
        </mxCell>
        <mxCell id="5aQSM23evN0nxybhoEWe-351" value="FK" style="shape=partialRectangle;html=1;whiteSpace=wrap;connectable=0;fillColor=none;top=0;left=0;bottom=0;right=0;overflow=hidden;pointerEvents=1;strokeColor=inherit;fontSize=16;" parent="5aQSM23evN0nxybhoEWe-350" vertex="1">
          <mxGeometry width="53" height="30" as="geometry">
            <mxRectangle width="53" height="30" as="alternateBounds" />
          </mxGeometry>
        </mxCell>
        <mxCell id="5aQSM23evN0nxybhoEWe-352" value="ID_Usuario" style="shape=partialRectangle;html=1;whiteSpace=wrap;connectable=0;fillColor=none;top=0;left=0;bottom=0;right=0;align=left;spacingLeft=6;overflow=hidden;strokeColor=inherit;fontSize=16;" parent="5aQSM23evN0nxybhoEWe-350" vertex="1">
          <mxGeometry x="53" width="186" height="30" as="geometry">
            <mxRectangle width="186" height="30" as="alternateBounds" />
          </mxGeometry>
        </mxCell>
        <mxCell id="5aQSM23evN0nxybhoEWe-347" style="shape=tableRow;horizontal=0;startSize=0;swimlaneHead=0;swimlaneBody=0;top=0;left=0;bottom=0;right=0;collapsible=0;dropTarget=0;fillColor=none;points=[[0,0.5],[1,0.5]];portConstraint=eastwest;strokeColor=inherit;fontSize=16;" parent="5aQSM23evN0nxybhoEWe-343" vertex="1">
          <mxGeometry y="120" width="239" height="30" as="geometry" />
        </mxCell>
        <mxCell id="5aQSM23evN0nxybhoEWe-348" value="FK" style="shape=partialRectangle;html=1;whiteSpace=wrap;connectable=0;fillColor=none;top=0;left=0;bottom=0;right=0;overflow=hidden;pointerEvents=1;strokeColor=inherit;fontSize=16;" parent="5aQSM23evN0nxybhoEWe-347" vertex="1">
          <mxGeometry width="53" height="30" as="geometry">
            <mxRectangle width="53" height="30" as="alternateBounds" />
          </mxGeometry>
        </mxCell>
        <mxCell id="5aQSM23evN0nxybhoEWe-349" value="Tipo" style="shape=partialRectangle;html=1;whiteSpace=wrap;connectable=0;fillColor=none;top=0;left=0;bottom=0;right=0;align=left;spacingLeft=6;overflow=hidden;strokeColor=inherit;fontSize=16;" parent="5aQSM23evN0nxybhoEWe-347" vertex="1">
          <mxGeometry x="53" width="186" height="30" as="geometry">
            <mxRectangle width="186" height="30" as="alternateBounds" />
          </mxGeometry>
        </mxCell>
        <mxCell id="5aQSM23evN0nxybhoEWe-356" value="Tipo_Reaccion" style="shape=table;startSize=30;container=1;collapsible=0;childLayout=tableLayout;fixedRows=1;rowLines=0;fontStyle=0;strokeColor=default;fontSize=16;" parent="1" vertex="1">
          <mxGeometry x="-420" y="200" width="239" height="60" as="geometry" />
        </mxCell>
        <mxCell id="5aQSM23evN0nxybhoEWe-357" value="" style="shape=tableRow;horizontal=0;startSize=0;swimlaneHead=0;swimlaneBody=0;top=0;left=0;bottom=0;right=0;collapsible=0;dropTarget=0;fillColor=none;points=[[0,0.5],[1,0.5]];portConstraint=eastwest;strokeColor=inherit;fontSize=16;" parent="5aQSM23evN0nxybhoEWe-356" vertex="1">
          <mxGeometry y="30" width="239" height="30" as="geometry" />
        </mxCell>
        <mxCell id="5aQSM23evN0nxybhoEWe-358" value="PK" style="shape=partialRectangle;html=1;whiteSpace=wrap;connectable=0;fillColor=none;top=0;left=0;bottom=0;right=0;overflow=hidden;pointerEvents=1;strokeColor=inherit;fontSize=16;" parent="5aQSM23evN0nxybhoEWe-357" vertex="1">
          <mxGeometry width="53" height="30" as="geometry">
            <mxRectangle width="53" height="30" as="alternateBounds" />
          </mxGeometry>
        </mxCell>
        <mxCell id="5aQSM23evN0nxybhoEWe-359" value="Tipo" style="shape=partialRectangle;html=1;whiteSpace=wrap;connectable=0;fillColor=none;top=0;left=0;bottom=0;right=0;align=left;spacingLeft=6;overflow=hidden;strokeColor=inherit;fontSize=16;" parent="5aQSM23evN0nxybhoEWe-357" vertex="1">
          <mxGeometry x="53" width="186" height="30" as="geometry">
            <mxRectangle width="186" height="30" as="alternateBounds" />
          </mxGeometry>
        </mxCell>
        <mxCell id="5aQSM23evN0nxybhoEWe-360" value="Roles" style="shape=table;startSize=30;container=1;collapsible=0;childLayout=tableLayout;fixedRows=1;rowLines=0;fontStyle=0;strokeColor=default;fontSize=16;" parent="1" vertex="1">
          <mxGeometry x="980" y="300" width="240" height="60" as="geometry" />
        </mxCell>
        <mxCell id="5aQSM23evN0nxybhoEWe-361" value="" style="shape=tableRow;horizontal=0;startSize=0;swimlaneHead=0;swimlaneBody=0;top=0;left=0;bottom=0;right=0;collapsible=0;dropTarget=0;fillColor=none;points=[[0,0.5],[1,0.5]];portConstraint=eastwest;strokeColor=inherit;fontSize=16;" parent="5aQSM23evN0nxybhoEWe-360" vertex="1">
          <mxGeometry y="30" width="240" height="30" as="geometry" />
        </mxCell>
        <mxCell id="5aQSM23evN0nxybhoEWe-362" value="PK" style="shape=partialRectangle;html=1;whiteSpace=wrap;connectable=0;fillColor=none;top=0;left=0;bottom=0;right=0;overflow=hidden;pointerEvents=1;strokeColor=inherit;fontSize=16;" parent="5aQSM23evN0nxybhoEWe-361" vertex="1">
          <mxGeometry width="53" height="30" as="geometry">
            <mxRectangle width="53" height="30" as="alternateBounds" />
          </mxGeometry>
        </mxCell>
        <mxCell id="5aQSM23evN0nxybhoEWe-363" value="Rol_Usuario" style="shape=partialRectangle;html=1;whiteSpace=wrap;connectable=0;fillColor=none;top=0;left=0;bottom=0;right=0;align=left;spacingLeft=6;overflow=hidden;strokeColor=inherit;fontSize=16;" parent="5aQSM23evN0nxybhoEWe-361" vertex="1">
          <mxGeometry x="53" width="187" height="30" as="geometry">
            <mxRectangle width="187" height="30" as="alternateBounds" />
          </mxGeometry>
        </mxCell>
        <mxCell id="5aQSM23evN0nxybhoEWe-370" value="Pertenece" style="shape=table;startSize=30;container=1;collapsible=0;childLayout=tableLayout;fixedRows=1;rowLines=0;fontStyle=0;strokeColor=default;fontSize=16;" parent="1" vertex="1">
          <mxGeometry x="770" y="430" width="240" height="120" as="geometry" />
        </mxCell>
        <mxCell id="5aQSM23evN0nxybhoEWe-371" value="" style="shape=tableRow;horizontal=0;startSize=0;swimlaneHead=0;swimlaneBody=0;top=0;left=0;bottom=0;right=0;collapsible=0;dropTarget=0;fillColor=none;points=[[0,0.5],[1,0.5]];portConstraint=eastwest;strokeColor=inherit;fontSize=16;" parent="5aQSM23evN0nxybhoEWe-370" vertex="1">
          <mxGeometry y="30" width="240" height="30" as="geometry" />
        </mxCell>
        <mxCell id="5aQSM23evN0nxybhoEWe-372" value="PK" style="shape=partialRectangle;html=1;whiteSpace=wrap;connectable=0;fillColor=none;top=0;left=0;bottom=0;right=0;overflow=hidden;pointerEvents=1;strokeColor=inherit;fontSize=16;" parent="5aQSM23evN0nxybhoEWe-371" vertex="1">
          <mxGeometry width="53" height="30" as="geometry">
            <mxRectangle width="53" height="30" as="alternateBounds" />
          </mxGeometry>
        </mxCell>
        <mxCell id="5aQSM23evN0nxybhoEWe-373" value="ID_Usuario" style="shape=partialRectangle;html=1;whiteSpace=wrap;connectable=0;fillColor=none;top=0;left=0;bottom=0;right=0;align=left;spacingLeft=6;overflow=hidden;strokeColor=inherit;fontSize=16;" parent="5aQSM23evN0nxybhoEWe-371" vertex="1">
          <mxGeometry x="53" width="187" height="30" as="geometry">
            <mxRectangle width="187" height="30" as="alternateBounds" />
          </mxGeometry>
        </mxCell>
        <mxCell id="5aQSM23evN0nxybhoEWe-374" value="" style="shape=tableRow;horizontal=0;startSize=0;swimlaneHead=0;swimlaneBody=0;top=0;left=0;bottom=0;right=0;collapsible=0;dropTarget=0;fillColor=none;points=[[0,0.5],[1,0.5]];portConstraint=eastwest;strokeColor=inherit;fontSize=16;" parent="5aQSM23evN0nxybhoEWe-370" vertex="1">
          <mxGeometry y="60" width="240" height="30" as="geometry" />
        </mxCell>
        <mxCell id="5aQSM23evN0nxybhoEWe-375" value="PK" style="shape=partialRectangle;html=1;whiteSpace=wrap;connectable=0;fillColor=none;top=0;left=0;bottom=0;right=0;overflow=hidden;strokeColor=inherit;fontSize=16;" parent="5aQSM23evN0nxybhoEWe-374" vertex="1">
          <mxGeometry width="53" height="30" as="geometry">
            <mxRectangle width="53" height="30" as="alternateBounds" />
          </mxGeometry>
        </mxCell>
        <mxCell id="5aQSM23evN0nxybhoEWe-376" value="ID_Comunidad" style="shape=partialRectangle;html=1;whiteSpace=wrap;connectable=0;fillColor=none;top=0;left=0;bottom=0;right=0;align=left;spacingLeft=6;overflow=hidden;strokeColor=inherit;fontSize=16;" parent="5aQSM23evN0nxybhoEWe-374" vertex="1">
          <mxGeometry x="53" width="187" height="30" as="geometry">
            <mxRectangle width="187" height="30" as="alternateBounds" />
          </mxGeometry>
        </mxCell>
        <mxCell id="5aQSM23evN0nxybhoEWe-377" value="" style="shape=tableRow;horizontal=0;startSize=0;swimlaneHead=0;swimlaneBody=0;top=0;left=0;bottom=0;right=0;collapsible=0;dropTarget=0;fillColor=none;points=[[0,0.5],[1,0.5]];portConstraint=eastwest;strokeColor=inherit;fontSize=16;" parent="5aQSM23evN0nxybhoEWe-370" vertex="1">
          <mxGeometry y="90" width="240" height="30" as="geometry" />
        </mxCell>
        <mxCell id="5aQSM23evN0nxybhoEWe-378" value="FK" style="shape=partialRectangle;html=1;whiteSpace=wrap;connectable=0;fillColor=none;top=0;left=0;bottom=0;right=0;overflow=hidden;strokeColor=inherit;fontSize=16;" parent="5aQSM23evN0nxybhoEWe-377" vertex="1">
          <mxGeometry width="53" height="30" as="geometry">
            <mxRectangle width="53" height="30" as="alternateBounds" />
          </mxGeometry>
        </mxCell>
        <mxCell id="5aQSM23evN0nxybhoEWe-379" value="Rol_Usuario" style="shape=partialRectangle;html=1;whiteSpace=wrap;connectable=0;fillColor=none;top=0;left=0;bottom=0;right=0;align=left;spacingLeft=6;overflow=hidden;strokeColor=inherit;fontSize=16;" parent="5aQSM23evN0nxybhoEWe-377" vertex="1">
          <mxGeometry x="53" width="187" height="30" as="geometry">
            <mxRectangle width="187" height="30" as="alternateBounds" />
          </mxGeometry>
        </mxCell>
        <mxCell id="5aQSM23evN0nxybhoEWe-384" style="edgeStyle=orthogonalEdgeStyle;rounded=0;orthogonalLoop=1;jettySize=auto;html=1;exitX=1;exitY=0.5;exitDx=0;exitDy=0;entryX=0.822;entryY=0.002;entryDx=0;entryDy=0;entryPerimeter=0;endArrow=none;endFill=0;" parent="1" source="5aQSM23evN0nxybhoEWe-35" target="5aQSM23evN0nxybhoEWe-186" edge="1">
          <mxGeometry relative="1" as="geometry" />
        </mxCell>
        <mxCell id="5aQSM23evN0nxybhoEWe-385" style="edgeStyle=orthogonalEdgeStyle;rounded=0;orthogonalLoop=1;jettySize=auto;html=1;exitX=1;exitY=0.5;exitDx=0;exitDy=0;entryX=0;entryY=0.5;entryDx=0;entryDy=0;endArrow=none;endFill=0;" parent="1" source="5aQSM23evN0nxybhoEWe-38" target="5aQSM23evN0nxybhoEWe-125" edge="1">
          <mxGeometry relative="1" as="geometry" />
        </mxCell>
        <mxCell id="5aQSM23evN0nxybhoEWe-386" style="edgeStyle=orthogonalEdgeStyle;rounded=0;orthogonalLoop=1;jettySize=auto;html=1;exitX=1;exitY=0.5;exitDx=0;exitDy=0;entryX=0;entryY=0.5;entryDx=0;entryDy=0;endArrow=none;endFill=0;" parent="1" source="5aQSM23evN0nxybhoEWe-23" target="5aQSM23evN0nxybhoEWe-57" edge="1">
          <mxGeometry relative="1" as="geometry" />
        </mxCell>
        <mxCell id="5aQSM23evN0nxybhoEWe-387" style="edgeStyle=orthogonalEdgeStyle;rounded=0;orthogonalLoop=1;jettySize=auto;html=1;exitX=0;exitY=0.5;exitDx=0;exitDy=0;entryX=1;entryY=0.5;entryDx=0;entryDy=0;endArrow=none;endFill=0;" parent="1" source="5aQSM23evN0nxybhoEWe-23" target="5aQSM23evN0nxybhoEWe-344" edge="1">
          <mxGeometry relative="1" as="geometry" />
        </mxCell>
        <mxCell id="5aQSM23evN0nxybhoEWe-388" style="edgeStyle=orthogonalEdgeStyle;rounded=0;orthogonalLoop=1;jettySize=auto;html=1;exitX=0;exitY=0.5;exitDx=0;exitDy=0;entryX=1;entryY=0.5;entryDx=0;entryDy=0;endArrow=none;endFill=0;" parent="1" source="5aQSM23evN0nxybhoEWe-41" target="5aQSM23evN0nxybhoEWe-327" edge="1">
          <mxGeometry relative="1" as="geometry" />
        </mxCell>
        <mxCell id="5aQSM23evN0nxybhoEWe-390" style="edgeStyle=orthogonalEdgeStyle;rounded=0;orthogonalLoop=1;jettySize=auto;html=1;exitX=1;exitY=0.5;exitDx=0;exitDy=0;entryX=0;entryY=0.5;entryDx=0;entryDy=0;endArrow=none;endFill=0;" parent="1" source="5aQSM23evN0nxybhoEWe-47" target="5aQSM23evN0nxybhoEWe-371" edge="1">
          <mxGeometry relative="1" as="geometry" />
        </mxCell>
        <mxCell id="_7q5wml3us1lX0jzosAX-1" style="edgeStyle=orthogonalEdgeStyle;rounded=0;orthogonalLoop=1;jettySize=auto;html=1;exitX=1;exitY=0.5;exitDx=0;exitDy=0;entryX=0;entryY=0.5;entryDx=0;entryDy=0;endArrow=none;endFill=0;" edge="1" parent="1" source="5aQSM23evN0nxybhoEWe-140" target="5aQSM23evN0nxybhoEWe-144">
          <mxGeometry relative="1" as="geometry" />
        </mxCell>
        <mxCell id="_7q5wml3us1lX0jzosAX-4" style="edgeStyle=orthogonalEdgeStyle;rounded=0;orthogonalLoop=1;jettySize=auto;html=1;exitX=1;exitY=0.5;exitDx=0;exitDy=0;entryX=0;entryY=0.5;entryDx=0;entryDy=0;endArrow=none;endFill=0;" edge="1" parent="1" source="5aQSM23evN0nxybhoEWe-208" target="5aQSM23evN0nxybhoEWe-228">
          <mxGeometry relative="1" as="geometry" />
        </mxCell>
        <mxCell id="_7q5wml3us1lX0jzosAX-5" style="edgeStyle=orthogonalEdgeStyle;rounded=0;orthogonalLoop=1;jettySize=auto;html=1;exitX=1;exitY=0.5;exitDx=0;exitDy=0;entryX=0;entryY=0.5;entryDx=0;entryDy=0;endArrow=none;endFill=0;" edge="1" parent="1" source="5aQSM23evN0nxybhoEWe-225" target="5aQSM23evN0nxybhoEWe-215">
          <mxGeometry relative="1" as="geometry" />
        </mxCell>
        <mxCell id="_7q5wml3us1lX0jzosAX-6" style="edgeStyle=orthogonalEdgeStyle;rounded=0;orthogonalLoop=1;jettySize=auto;html=1;exitX=0;exitY=0.5;exitDx=0;exitDy=0;entryX=1;entryY=0.5;entryDx=0;entryDy=0;endArrow=none;endFill=0;" edge="1" parent="1" source="5aQSM23evN0nxybhoEWe-340" target="5aQSM23evN0nxybhoEWe-317">
          <mxGeometry relative="1" as="geometry" />
        </mxCell>
        <mxCell id="_7q5wml3us1lX0jzosAX-9" style="edgeStyle=orthogonalEdgeStyle;rounded=0;orthogonalLoop=1;jettySize=auto;html=1;exitX=1;exitY=0.5;exitDx=0;exitDy=0;entryX=0;entryY=0.5;entryDx=0;entryDy=0;endArrow=none;endFill=0;" edge="1" parent="1" source="5aQSM23evN0nxybhoEWe-285" target="5aQSM23evN0nxybhoEWe-344">
          <mxGeometry relative="1" as="geometry" />
        </mxCell>
        <mxCell id="_7q5wml3us1lX0jzosAX-10" style="edgeStyle=orthogonalEdgeStyle;rounded=0;orthogonalLoop=1;jettySize=auto;html=1;exitX=1;exitY=0.5;exitDx=0;exitDy=0;entryX=0;entryY=0.5;entryDx=0;entryDy=0;endArrow=none;endFill=0;" edge="1" parent="1" source="5aQSM23evN0nxybhoEWe-294" target="5aQSM23evN0nxybhoEWe-333">
          <mxGeometry relative="1" as="geometry" />
        </mxCell>
        <mxCell id="_7q5wml3us1lX0jzosAX-11" style="edgeStyle=orthogonalEdgeStyle;rounded=0;orthogonalLoop=1;jettySize=auto;html=1;exitX=0;exitY=0.5;exitDx=0;exitDy=0;entryX=0;entryY=0.5;entryDx=0;entryDy=0;endArrow=none;endFill=0;" edge="1" parent="1" source="5aQSM23evN0nxybhoEWe-317" target="5aQSM23evN0nxybhoEWe-314">
          <mxGeometry relative="1" as="geometry" />
        </mxCell>
        <mxCell id="_7q5wml3us1lX0jzosAX-13" style="edgeStyle=orthogonalEdgeStyle;rounded=0;orthogonalLoop=1;jettySize=auto;html=1;exitX=1;exitY=0.5;exitDx=0;exitDy=0;entryX=0;entryY=0.5;entryDx=0;entryDy=0;endArrow=none;endFill=0;" edge="1" parent="1" source="5aQSM23evN0nxybhoEWe-215" target="5aQSM23evN0nxybhoEWe-235">
          <mxGeometry relative="1" as="geometry" />
        </mxCell>
        <mxCell id="_7q5wml3us1lX0jzosAX-14" style="edgeStyle=orthogonalEdgeStyle;rounded=0;orthogonalLoop=1;jettySize=auto;html=1;exitX=1;exitY=0.5;exitDx=0;exitDy=0;entryX=0;entryY=0.5;entryDx=0;entryDy=0;endArrow=none;endFill=0;" edge="1" parent="1" source="5aQSM23evN0nxybhoEWe-199" target="5aQSM23evN0nxybhoEWe-261">
          <mxGeometry relative="1" as="geometry">
            <Array as="points">
              <mxPoint x="1190" y="815" />
              <mxPoint x="1190" y="455" />
            </Array>
          </mxGeometry>
        </mxCell>
        <mxCell id="_7q5wml3us1lX0jzosAX-15" style="edgeStyle=orthogonalEdgeStyle;rounded=0;orthogonalLoop=1;jettySize=auto;html=1;exitX=1;exitY=0.5;exitDx=0;exitDy=0;entryX=0;entryY=0.5;entryDx=0;entryDy=0;endArrow=none;endFill=0;" edge="1" parent="1" source="5aQSM23evN0nxybhoEWe-258" target="5aQSM23evN0nxybhoEWe-254">
          <mxGeometry relative="1" as="geometry" />
        </mxCell>
        <mxCell id="_7q5wml3us1lX0jzosAX-17" style="edgeStyle=orthogonalEdgeStyle;rounded=0;orthogonalLoop=1;jettySize=auto;html=1;exitX=1;exitY=0.5;exitDx=0;exitDy=0;entryX=0;entryY=0.5;entryDx=0;entryDy=0;endArrow=none;endFill=0;" edge="1" parent="1" source="5aQSM23evN0nxybhoEWe-118" target="5aQSM23evN0nxybhoEWe-108">
          <mxGeometry relative="1" as="geometry" />
        </mxCell>
        <mxCell id="_7q5wml3us1lX0jzosAX-19" style="edgeStyle=orthogonalEdgeStyle;rounded=0;orthogonalLoop=1;jettySize=auto;html=1;exitX=1;exitY=0.5;exitDx=0;exitDy=0;entryX=0;entryY=0.5;entryDx=0;entryDy=0;" edge="1" parent="1" source="5aQSM23evN0nxybhoEWe-63" target="5aQSM23evN0nxybhoEWe-85">
          <mxGeometry relative="1" as="geometry" />
        </mxCell>
        <mxCell id="_7q5wml3us1lX0jzosAX-20" style="edgeStyle=orthogonalEdgeStyle;rounded=0;orthogonalLoop=1;jettySize=auto;html=1;exitX=1;exitY=0.5;exitDx=0;exitDy=0;entryX=1;entryY=0.5;entryDx=0;entryDy=0;endArrow=none;endFill=0;" edge="1" parent="1" source="5aQSM23evN0nxybhoEWe-281" target="5aQSM23evN0nxybhoEWe-254">
          <mxGeometry relative="1" as="geometry" />
        </mxCell>
        <mxCell id="_7q5wml3us1lX0jzosAX-21" style="edgeStyle=orthogonalEdgeStyle;rounded=0;orthogonalLoop=1;jettySize=auto;html=1;exitX=0;exitY=0.5;exitDx=0;exitDy=0;entryX=0.75;entryY=0;entryDx=0;entryDy=0;endArrow=none;endFill=0;" edge="1" parent="1" source="5aQSM23evN0nxybhoEWe-361" target="5aQSM23evN0nxybhoEWe-370">
          <mxGeometry relative="1" as="geometry" />
        </mxCell>
        <mxCell id="_7q5wml3us1lX0jzosAX-22" style="edgeStyle=orthogonalEdgeStyle;rounded=0;orthogonalLoop=1;jettySize=auto;html=1;exitX=1;exitY=0.5;exitDx=0;exitDy=0;entryX=1;entryY=0.5;entryDx=0;entryDy=0;endArrow=none;endFill=0;" edge="1" parent="1" source="5aQSM23evN0nxybhoEWe-193" target="5aQSM23evN0nxybhoEWe-377">
          <mxGeometry relative="1" as="geometry">
            <Array as="points">
              <mxPoint x="1150" y="785" />
              <mxPoint x="1150" y="535" />
            </Array>
          </mxGeometry>
        </mxCell>
      </root>
    </mxGraphModel>
  </diagram>
</mxfile>
